<svg xmlns="http://www.w3.org/2000/svg" width="20" height="20" viewBox="0 0 20 20">
  <g id="_21_лого_7" data-name="21 лого 7" transform="translate(-654 -6714)">
    <g id="Group_621" data-name="Group 621" transform="translate(654 6714)">
      <g id="Group_438" data-name="Group 438">
        <g id="Group_437" data-name="Group 437">
          <path id="Path_408" data-name="Path 408" d="M666.66,7625.62a10,10,0,1,0,10,10,10,10,0,0,0-10-10" transform="translate(-656.66 -7625.62)" fill="#fff"/>
        </g>
      </g>
    </g>
    <path id="Path_1178" data-name="Path 1178" d="M666.66,7625.62a10,10,0,1,0,10,10,10,10,0,0,0-10-10" transform="translate(-2.66 -911.62)" fill="#fb812f"/>
    <path id="Path_1179" data-name="Path 1179" d="M668.622,7643.18s-.406,7.016,6.257,7.016v-2.482a3.339,3.339,0,0,1,2.874,2.481h1.976a4.957,4.957,0,0,0-2.818-3.5s2.3-1.5,2.412-3.516h-1.788s-.92,2.642-2.656,2.78v-2.78h-1.8l.026,4.872s-2.549-.792-2.589-4.872Z" transform="translate(-10.173 -922.688)" fill="#fff"/>
  </g>
</svg>
