<svg xmlns="http://www.w3.org/2000/svg" width="16.8" height="16.8" viewBox="0 0 16.8 16.8">
  <g id="Сгруппировать_104" data-name="Сгруппировать 104" transform="translate(-557.1 -1885.1)">
    <circle id="Эллипс_18" data-name="Эллипс 18" cx="8" cy="8" r="8" transform="translate(557.5 1885.5)" fill="none" stroke="#d1d1d1" stroke-width="0.8"/>
    <path id="volume-icon" d="M.76,1.3H2.274L3.527.04a.238.238,0,0,1,.336,0,.234.234,0,0,1,.067.168h0v5.22a.239.239,0,0,1-.409.167L2.282,4.588H.76A.762.762,0,0,1,0,3.83V2.064A.763.763,0,0,1,.76,1.3Zm4.254.79a.223.223,0,0,1,.422-.142,3,3,0,0,1,.107.917,2.212,2.212,0,0,1-.147.843.224.224,0,0,1-.4-.2,1.77,1.77,0,0,0,.1-.656,2.563,2.563,0,0,0-.085-.768Zm1.15-.832a.223.223,0,1,1,.413-.171A4.868,4.868,0,0,1,6.9,2.836a4.486,4.486,0,0,1-.278,1.712.222.222,0,0,1-.413-.166A4.1,4.1,0,0,0,6.46,2.838a4.4,4.4,0,0,0-.3-1.577ZM7.275.555a.223.223,0,1,1,.4-.193A6,6,0,0,1,8.247,2.88a5.147,5.147,0,0,1-.537,2.4.222.222,0,1,1-.4-.2,4.746,4.746,0,0,0,.485-2.2A5.534,5.534,0,0,0,7.274.558Z" transform="translate(561.377 1890.682)" fill="#d1d1d1"/>
  </g>
</svg>
