<svg xmlns="http://www.w3.org/2000/svg" width="16.117" height="13.304" viewBox="0 0 16.117 13.304">
  <path id="Path_1311" data-name="Path 1311" d="M13.591,2.549a.532.532,0,0,1,0-.067.383.383,0,0,1,0-.067V.962a6.767,6.767,0,0,0-3,.364A4.126,4.126,0,0,0,8.507,2.957v8.308a10.576,10.576,0,0,1,2.306-1.192,6.632,6.632,0,0,1,2.779-.4Zm.885-.508h1.2a.442.442,0,0,1,.442.442V12.667a.442.442,0,0,1-.442.442.43.43,0,0,1-.143-.023A13.726,13.726,0,0,0,11.86,12.5a8.52,8.52,0,0,0-3.552.728.445.445,0,0,1-.251.074.451.451,0,0,1-.251-.074A8.495,8.495,0,0,0,4.247,12.5a13.735,13.735,0,0,0-3.671.6.43.43,0,0,1-.143.023A.439.439,0,0,1,0,12.672V2.486a.442.442,0,0,1,.442-.442H1.7L1.71.567a.442.442,0,0,1,.353-.43h0A7.012,7.012,0,0,1,5.878.43a4.9,4.9,0,0,1,2.2,1.607A5.147,5.147,0,0,1,10.281.5,7.753,7.753,0,0,1,14.1.135a.442.442,0,0,1,.377.437h0V2.044ZM7.622,11.179V2.944A3.9,3.9,0,0,0,5.559,1.256,6.1,6.1,0,0,0,2.59.94L2.54,9.7a8.549,8.549,0,0,1,2.969.4,7.566,7.566,0,0,1,2.113,1.075Z" transform="translate(0 0.002)" fill="#fb812f"/>
</svg>
