<svg xmlns="http://www.w3.org/2000/svg" width="49.963" height="62.002" viewBox="0 0 49.963 62.002">
  <g id="иконка3" transform="translate(-1573.324 -4120.41) rotate(-15.009)">
    <path id="Path_1213" data-name="Path 1213" d="M-1860.68,4428.58s-.187,5.587,3.289,5.587h8.484s3.515-.029,3.515-5.587S-1860.68,4428.58-1860.68,4428.58Z" transform="translate(2321.959 19.128)" fill="#fb812f"/>
    <g id="Group_1543" data-name="Group 1543" transform="translate(450 4396.233)">
      <path id="Path_1209" data-name="Path 1209" d="M-2952.52,5484.29h-9.013v-11.527a14.3,14.3,0,0,0-2.99-6.2c-2.263-2.408-7.054-9.087-7.054-15.5a19.259,19.259,0,0,1,2.449-8.591,18.555,18.555,0,0,1,16.736-9.9" transform="translate(2971.576 -5432.567)" fill="#fb812f"/>
      <path id="Path_1210" data-name="Path 1210" d="M-2971.82,5484.29h9.285v-11.527a14.3,14.3,0,0,1,2.991-6.2c2.261-2.408,7.053-9.087,7.053-15.5a19.26,19.26,0,0,0-2.449-8.591,18.793,18.793,0,0,0-16.88-9.9" transform="translate(2990.345 -5432.567)" fill="#fb812f"/>
    </g>
    <g id="Group_1535" data-name="Group 1535" transform="translate(461.008 4414.395)">
      <g id="Group_1531" data-name="Group 1531">
        <g id="Group_1530" data-name="Group 1530">
          <path id="Path_1199" data-name="Path 1199" d="M-2939.6,5497.31v-20.584a2.449,2.449,0,0,0-.871-1.781,2.449,2.449,0,0,0-1.9-.553c-2.716.1-3.475,5.581-.365,5.581h6.436" transform="translate(2944.767 -5474.391)" fill="none" stroke="#fff" stroke-width="1"/>
          <path id="Path_1200" data-name="Path 1200" d="M-2941.77,5497.31v-20.584a2.45,2.45,0,0,1,.872-1.781,2.449,2.449,0,0,1,1.9-.553c2.716.1,3.475,5.581.365,5.581h-6.348" transform="translate(2952.232 -5474.391)" fill="none" stroke="#fff" stroke-width="1"/>
        </g>
      </g>
    </g>
    <path id="Path_1214" data-name="Path 1214" d="M-2945.28,5488.41h17.966" transform="translate(3405.254 -1051.096)" fill="none" stroke="#fff" stroke-width="1"/>
  </g>
</svg>
