<svg xmlns="http://www.w3.org/2000/svg" width="11.496" height="14.652" viewBox="0 0 11.496 14.652">
  <path id="Контур_1278" data-name="Контур 1278" d="M2.044,0H9.452A2.043,2.043,0,0,1,11.5,2.044V12.608a2.043,2.043,0,0,1-2.044,2.044H2.044A2.043,2.043,0,0,1,0,12.607V2.042A2.043,2.043,0,0,1,2.044,0ZM5.382,7.181h.032a.464.464,0,0,1,.461.461V10.6h.3V9.362A.43.43,0,0,1,6.6,8.934h.032a.464.464,0,0,1,.461.46v1.239l.014-.006h.323V9.685a.43.43,0,0,1,.428-.428h.032a.464.464,0,0,1,.461.46v.863h0l.32,0v-.61a.43.43,0,0,1,.428-.428h.032A.464.464,0,0,1,9.6,10v1.291a.3.3,0,0,1,0,.046l.014.012a6.634,6.634,0,0,1-.051,1.18h1.124V2.01H.806V12.53H4.591L3.119,10.2c-.094-.221-.082-.37.012-.466.405-.265,1.068.3,1.8,1.089l.026-.006V7.6a.43.43,0,0,1,.428-.428l-.006.006Zm.279-1.236a.227.227,0,1,1-.453,0V5.031a.227.227,0,1,1,.453,0v.913ZM3.6,7.814a.227.227,0,1,1,0,.453H2.687a.227.227,0,1,1,0-.453Zm.645-1.352a.226.226,0,0,1-.32.32l-.643-.646a.226.226,0,0,1,.32-.32l.643.646ZM7.223,8.267a.227.227,0,0,1,0-.453h.913a.227.227,0,0,1,0,.453ZM6.9,6.732a.226.226,0,0,1-.32-.32l.643-.646a.226.226,0,1,1,.32.32L6.9,6.732Z" fill="#d1d1d1" fill-rule="evenodd"/>
</svg>
