<svg xmlns="http://www.w3.org/2000/svg" width="56.168" height="66.217" viewBox="0 0 56.168 66.217">
  <g id="иконка_5" data-name="иконка 5" transform="translate(0 11.097) rotate(-15.009)">
    <path id="Path_1459" data-name="Path 1459" d="M8.642,25.489C7.29,13.374,14.367,4.853,27.639,0c-8.126,10.546,6.928,21.969,7.76,32.919,1.946-3.32,3.051-7.75,3.269-13.675,9.951,15.612,1.7,41.129-20.2,37.46a18.473,18.473,0,0,1-5.712-1.918C4.769,50.523,0,41.231,0,32.357A24.148,24.148,0,0,1,5.549,17.641C5.967,21.57,6.859,24.5,8.642,25.489Z" fill="#fb812f" fill-rule="evenodd"/>
    <path id="Path_1460" data-name="Path 1460" d="M27.036,71.192c-2.257-5.828-1.946-15.24,4.374-18.542.046,10.82,10.7,12.2,8.73,23.748a14.062,14.062,0,0,0,2.9-7.964c2.888,6.613.622,11.9-3.5,14.6-12.518,8.191-23.3-8.415-16.131-17.516.218,2.034,2.707,5.173,3.627,5.679Z" transform="translate(-11.308 -28.201)" fill="#fff" fill-rule="evenodd"/>
  </g>
</svg>
