<svg xmlns="http://www.w3.org/2000/svg" width="20" height="24.889" viewBox="0 0 20 24.889">
  <g id="Group_2113" data-name="Group 2113" transform="translate(-987 -186)">
    <g id="Group_2047" data-name="Group 2047" transform="translate(987 186)">
      <g id="Group_2029" data-name="Group 2029">
        <g id="Group_2017" data-name="Group 2017">
          <path id="playing-card-heart-icon" d="M3.038,0H16.97a3.038,3.038,0,0,1,2.139.891.494.494,0,0,1,.055.059A3.023,3.023,0,0,1,20,3.038V21.851a3.038,3.038,0,0,1-3.038,3.038H3.038A3.026,3.026,0,0,1,.9,24h0A3.038,3.038,0,0,1,0,21.851V3.038A3.038,3.038,0,0,1,3.038,0Z" fill="#a6c6f3"/>
        </g>
      </g>
    </g>
    <g id="Group_2108" data-name="Group 2108" transform="translate(990.318 189.318)">
      <g id="Group_2107" data-name="Group 2107">
        <path id="Path_1376" data-name="Path 1376" d="M-4314.61,6564.53l.5.4h4.618v-3.254l4.028-1.4V6551.1l-.527-.279h-8.12l-.5.279-.249.4v12.366Z" transform="translate(4315.024 -6550.562)" fill="#fff" stroke="#fff" stroke-width="0.1"/>
        <g id="casino-icon">
          <path id="Path_1375" data-name="Path 1375" d="M1,.6H8.872a1,1,0,0,1,1,1v8.894l-.457-.166V1.6a.54.54,0,0,0-.54-.539H1a.545.545,0,0,0-.373.149l-.008.009A.54.54,0,0,0,.457,1.6V14.168A.54.54,0,0,0,1,14.706H5.4v.457H1a1,1,0,0,1-.7-.293h0a.991.991,0,0,1-.293-.7V1.6A.994.994,0,0,1,.293.9L.307.885A.988.988,0,0,1,1,.6ZM5.824,11.9l3.325,1.36a.6.6,0,0,0,.385.027l3.525-1.44c.1-.044,0-.235-.11-.273L9.4,10.329c-.027-.009-.694.233-.788.266l-2.9,1.036c-.111.042-.034.215.11.274Zm7.426,4.767L9.768,18.559c-.1.055-.24.047-.24-.067v-4.44c0-.114.009-.226.114-.271l3.491-1.487c.1-.044.251,0,.249.11l-.023,4c0,.114-.013.216-.113.271Zm-.8-1.564c.237.1.305.456.154.793s-.468.526-.7.426-.306-.454-.154-.793.468-.526.7-.426Zm-1.263-.927c.244.1.316.472.158.819s-.484.547-.73.442-.316-.472-.158-.819S10.941,14.071,11.187,14.176ZM5.512,16.643l3.447,1.866c.1.055.24.047.24-.067v-4.4c0-.114-.009-.226-.114-.271L5.64,12.3c-.1-.045-.249,0-.249.11L5.4,16.373c0,.113.013.215.113.269Zm.343-1.22c.216-.136.537.02.716.349a.655.655,0,0,1-.066.848c-.216.138-.537-.019-.718-.349a.658.658,0,0,1,.067-.848Zm1.018-.765c.229-.139.569.019.758.354a.638.638,0,0,1-.069.855c-.229.138-.569-.02-.758-.354A.639.639,0,0,1,6.873,14.658Zm1.079-.807c.23-.139.572.019.765.354a.639.639,0,0,1-.069.857c-.23.139-.572-.019-.765-.354a.637.637,0,0,1,.069-.857Zm1.415-2.48c.406,0,.735.157.735.351s-.329.351-.735.351-.735-.157-.735-.351S8.961,11.371,9.367,11.371Z" transform="translate(0 -0.603)" fill="#fff" fill-rule="evenodd"/>
        </g>
      </g>
      <g id="casino-icon-2" data-name="casino-icon" transform="translate(0.899 1.606)">
        <path id="Path_1375-2" data-name="Path 1375" d="M.974,2.753l.1-.016L1.5,1.515h.29l.425,1.222.1.016v.168H1.838V2.753l.1-.017-.062-.194H1.418l-.062.194.1.017v.168H.974Zm.512-.418h.323l-.158-.5H1.644Zm4.531,7.926-.51-1.177A1.343,1.343,0,0,0,7.851,8.13c.024-.969-.9-2.233-2.717-3.87C3.329,5.9,2.4,7.154,2.5,8.13a1.323,1.323,0,0,0,2.228.954l-.362,1.177Z" transform="translate(-0.974 -1.515)" fill="#a6c6f3" fill-rule="evenodd"/>
      </g>
    </g>
  </g>
</svg>
