<svg xmlns="http://www.w3.org/2000/svg" width="25.493" height="25.497" viewBox="0 0 25.493 25.497">
  <g id="Group_1937" data-name="Group 1937" transform="translate(-895.433 -615.249)">
    <g id="exclamation-round-line-icon" transform="translate(895.43 615.249)">
      <path id="Path_1313" data-name="Path 1313" d="M10.19.249a13.289,13.289,0,0,1,5.119,0,12.215,12.215,0,0,1,2.382.736L17.72,1a13.373,13.373,0,0,1,2.173,1.18,12.425,12.425,0,0,1,1.88,1.547h0a12.414,12.414,0,0,1,1.547,1.88A13.356,13.356,0,0,1,24.5,7.779h0a12.2,12.2,0,0,1,.748,2.409,13.3,13.3,0,0,1,0,5.119,12.215,12.215,0,0,1-.736,2.382.067.067,0,0,1-.012.029,13.366,13.366,0,0,1-1.18,2.173,12.444,12.444,0,0,1-1.547,1.88h0a12.415,12.415,0,0,1-1.88,1.547A13.381,13.381,0,0,1,17.72,24.5h0a12.228,12.228,0,0,1-2.409.748,13.289,13.289,0,0,1-5.119,0,12.238,12.238,0,0,1-2.382-.736L7.779,24.5a13.365,13.365,0,0,1-2.173-1.18,12.424,12.424,0,0,1-1.88-1.547h0a12.435,12.435,0,0,1-1.547-1.88A13.373,13.373,0,0,1,1,17.721H1a12.219,12.219,0,0,1-.748-2.409,13.3,13.3,0,0,1,0-5.119A12.231,12.231,0,0,1,.985,7.808L1,7.779A13.356,13.356,0,0,1,2.18,5.606a12.423,12.423,0,0,1,1.547-1.88h0a12.423,12.423,0,0,1,1.88-1.547A13.374,13.374,0,0,1,7.779,1h0A12.247,12.247,0,0,1,10.19.249Z" fill="#fb812f"/>
    </g>
    <path id="Path_1314" data-name="Path 1314" d="M11.922,18.523a.914.914,0,0,1,0-.683.891.891,0,0,1,.2-.288h0a.887.887,0,0,1,.288-.2.92.92,0,0,1,.684,0,.888.888,0,0,1,.285.192h0a.887.887,0,0,1,.2.289.916.916,0,0,1,0,.683.978.978,0,0,1-.49.489.91.91,0,0,1-.683,0,.9.9,0,0,1-.284-.193h0a.889.889,0,0,1-.2-.289ZM13.3,16.149a.422.422,0,0,1-.338.4.774.774,0,0,1-.432,0,.421.421,0,0,1-.338-.4l-.709-9.271V6.872h0c0-.227.338-.365.771-.419a4.179,4.179,0,0,1,.984,0c.433.054.771.192.771.419a.1.1,0,0,1,0,.011Z" transform="translate(895.43 615.25)" fill="#fff"/>
  </g>
</svg>
