<svg xmlns="http://www.w3.org/2000/svg" width="69.468" height="64.389" viewBox="0 0 69.468 64.389">
  <g id="Group_2621" data-name="Group 2621" transform="translate(-1526.901 -46.167)">
    <g id="Group_509" data-name="Group 509" transform="translate(1527.606 47.022)">
      <g id="Group_508" data-name="Group 508">
        <path id="Path_497" data-name="Path 497" d="M2135.77,1054.72l13.082-11.013a2.678,2.678,0,0,1,3.831.394l14.872,18.829a2.574,2.574,0,0,0,3.661.394l22.011-18.012" transform="translate(-2135.77 -1012.039)" fill="none" stroke="#d1d1d1" stroke-linecap="round" stroke-miterlimit="10" stroke-width="1"/>
        <circle id="Ellipse_120" data-name="Ellipse 120" cx="3.985" cy="3.985" r="3.985" transform="translate(54.655 41.122)" fill="none" stroke="#d1d1d1" stroke-linecap="round" stroke-miterlimit="10" stroke-width="1"/>
        <circle id="Ellipse_121" data-name="Ellipse 121" cx="3.985" cy="3.985" r="3.985" transform="translate(37.136 55.064)" fill="none" stroke="#d1d1d1" stroke-linecap="round" stroke-miterlimit="10" stroke-width="1"/>
        <path id="Path_498" data-name="Path 498" d="M2173.91,1057.14l-5.38,4.3a2.635,2.635,0,0,1-3.69-.409l-20.491-25.7a2.635,2.635,0,0,1,.409-3.69l5.38-4.3a2.635,2.635,0,0,1,3.69.409l20.49,25.7a2.622,2.622,0,0,1-.408,3.69Z" transform="translate(-2132.502 -1018.702)" fill="none" stroke="#d1d1d1" stroke-width="1"/>
        <path id="Path_499" data-name="Path 499" d="M2179.98,1048.4l-1.817,2.127a2.033,2.033,0,0,1-2.873.225l-21.378-18.35a1.961,1.961,0,0,1-.211-2.76l1.831-2.141a1.675,1.675,0,0,1,2.366-.183l21.913,18.8a1.623,1.623,0,0,1,.168,2.282Z" transform="translate(-2128.643 -1018.641)" fill="none" stroke="#d1d1d1" stroke-width="1"/>
        <path id="Path_500" data-name="Path 500" d="M2183.46,1046.46l-3.127,2.493a1.213,1.213,0,0,1-1.717-.2l-18.533-23.236a1.216,1.216,0,0,1,.2-1.718l3.127-2.493a1.215,1.215,0,0,1,1.718.2l18.533,23.237a1.228,1.228,0,0,1-.2,1.717Z" transform="translate(-2125.955 -1021.039)" fill="none" stroke="#d1d1d1" stroke-width="1"/>
      </g>
    </g>
    <circle id="Ellipse_145" data-name="Ellipse 145" cx="7.228" cy="7.228" r="7.228" transform="translate(1581.913 46.167)" fill="#fb812f"/>
    <text id="_1" data-name="1" transform="translate(1587.141 56.895)" font-size="8" font-family="SegoeUI, Segoe UI"><tspan x="0" y="0">1</tspan></text>
  </g>
</svg>
