<svg xmlns="http://www.w3.org/2000/svg" width="58.959" height="58.653" viewBox="0 0 58.959 58.653">
  <g id="иконка1" transform="translate(1404.713 -6021.277) rotate(-15.009)">
    <path id="Path_1206" data-name="Path 1206" d="M-2902.16,5464.54c1.474-.479,3.178,1.665,5.4,1.031s3.218-2.452,5.224-2.2,3.511,3.636,4.7,3.7,4.826-1.317,5.7-.314,1,4.7,2.257,5.391,4.45.565,5.077,2.006-.815,4.515,0,6.019,3.636,3.635,3.385,4.826-2.507,4.327-2.319,5.2,1.63,4.513,1.065,5.328-4.325,2.7-4.514,3.51,0,4.89-.814,5.33-5.7.627-6.206,1.5-2.444,4.012-3.322,4.2-4.64-1.566-5.7-1.253-4.263,2.381-5.2,2.319-3.635-3.447-4.451-3.574-4.89.815-5.517.439-1.692-5.2-2.444-5.579-4.889-1.38-5.141-2.132.251-5.2,0-5.83-3.824-4.137-3.636-5.015,2.383-3.888,2.7-4.953-1.755-5.141-1.128-6.081,4.325-2.318,4.513-3.008.565-5.266,1.5-5.7,4.576-.439,5.2-.878S-2903.63,5465.02-2902.16,5464.54Z" transform="translate(-0.383 0.156)" fill="#fb812f"/>
    <circle id="Ellipse_153" data-name="Ellipse 153" cx="15.522" cy="15.522" r="15.522" transform="translate(-2909.869 5471.717)" fill="#fff"/>
  </g>
</svg>
