<svg id="odnoklassniki-round-icon" xmlns="http://www.w3.org/2000/svg" width="20" height="20" viewBox="0 0 20 20">
  <path id="Path_1347" data-name="Path 1347" d="M10,0A10,10,0,1,1,0,10,10,10,0,0,1,10,0Zm1.118,12.625a4.943,4.943,0,0,0,1.979-.853.824.824,0,1,0-1.032-1.286,3.576,3.576,0,0,1-2.059.6,3.668,3.668,0,0,1-2.075-.6A.824.824,0,1,0,6.9,11.772a5.059,5.059,0,0,0,2.043.863L7.207,14.45a.824.824,0,1,0,1.185,1.144l1.615-1.72,1.777,1.732a.824.824,0,0,0,1.164-1.167l-1.829-1.813ZM10.049,4.154A3.031,3.031,0,1,0,13.08,7.185,3.031,3.031,0,0,0,10.049,4.154Zm0,4.282a1.252,1.252,0,1,1,.884-.367,1.252,1.252,0,0,1-.884.367Z" fill="#d1d1d1" fill-rule="evenodd"/>
</svg>
