<svg xmlns="http://www.w3.org/2000/svg" width="64.055" height="63.893" viewBox="0 0 64.055 63.893">
  <g id="Group_2622" data-name="Group 2622" transform="translate(-607.999 -1905.999)">
    <g id="Group_1611" data-name="Group 1611" transform="translate(2094 -200)">
      <path id="Path_657" data-name="Path 657" d="M651.054,4816.26a1.858,1.858,0,0,1,0,3.22l-13.049,7.533-13.049,7.534a1.86,1.86,0,0,1-2.787-1.6V4802.8a1.853,1.853,0,0,1,2.787-1.6l13.049,7.533Z" transform="translate(-2086.55 -2680.051)" fill="#fb812f" stroke="#fb812f" stroke-miterlimit="10" stroke-width="1"/>
      <g id="Linked_Path_Group" data-name="Linked Path Group" transform="translate(-1486 2106)" opacity="0.3">
        <path id="Path_1047" data-name="Path 1047" d="M66.509,40.411a1.3,1.3,0,0,0,.073.582,1.181,1.181,0,0,0,.306.462.967.967,0,0,0,.491.239l-.076.822a1.549,1.549,0,0,1-.808-.381,2.082,2.082,0,0,1-.554-.782,2.11,2.11,0,0,1-.142-1.007,2.316,2.316,0,0,1,.293-.976,1.98,1.98,0,0,1,.616-.65,2.475,2.475,0,0,1,.842-.341,3.409,3.409,0,0,1,.98-.046l.2.018a3.358,3.358,0,0,1,.95.225,2.465,2.465,0,0,1,.77.491,1.98,1.98,0,0,1,.486.752,2.317,2.317,0,0,1,.109,1.014,2.136,2.136,0,0,1-.339,1.014,1.791,1.791,0,0,1-.719.635,1.9,1.9,0,0,1-.96.194l.076-.822a1.252,1.252,0,0,0,.582-.125,1.111,1.111,0,0,0,.44-.374,1.155,1.155,0,0,0,.21-.588,1.307,1.307,0,0,0-.1-.683,1.176,1.176,0,0,0-.381-.464,1.973,1.973,0,0,0-.563-.278,3.223,3.223,0,0,0-.643-.126l-.2-.018a3.294,3.294,0,0,0-.66,0,1.883,1.883,0,0,0-.6.165,1.226,1.226,0,0,0-.46.386,1.349,1.349,0,0,0-.219.662Z" transform="translate(-7.006 -5.99)" fill="#0255ce"/>
        <path id="Path_1048" data-name="Path 1048" d="M65.716,46.855l3.176,2.877-.264.792-4.1-3.749.19-.57,5.528-.533-.264.792Zm4.344-.631-4.817-1.6.274-.824,4.817,1.6Zm-6.053,2.109,4.817,1.6-.276.828-4.817-1.6Z" transform="translate(-6.925 -6.205)" fill="#0255ce"/>
        <path id="Path_1049" data-name="Path 1049" d="M65.288,51.736l.092.056a3.142,3.142,0,0,1,.786.667,2.419,2.419,0,0,1,.461.82,2.052,2.052,0,0,1,.085.9,2.434,2.434,0,0,1-1,1.638,2.042,2.042,0,0,1-.846.341,2.378,2.378,0,0,1-.943-.032,3.143,3.143,0,0,1-.952-.4l-.092-.056a3.145,3.145,0,0,1-.786-.667,2.433,2.433,0,0,1-.459-.824,2.128,2.128,0,0,1-.085-.9,2.285,2.285,0,0,1,.335-.917,2.318,2.318,0,0,1,.666-.721A2.177,2.177,0,0,1,63.4,51.3a2.481,2.481,0,0,1,.94.036,3.143,3.143,0,0,1,.952.4Zm-.36.8-.092-.056a2.8,2.8,0,0,0-.659-.3,1.89,1.89,0,0,0-.644-.08,1.355,1.355,0,0,0-.586.176,1.325,1.325,0,0,0-.454.465,1.286,1.286,0,0,0-.2.608,1.31,1.31,0,0,0,.114.6,1.89,1.89,0,0,0,.365.536,2.669,2.669,0,0,0,.564.454l.092.056a2.6,2.6,0,0,0,.653.289,1.823,1.823,0,0,0,.65.078,1.293,1.293,0,0,0,.587-.169,1.264,1.264,0,0,0,.456-.458,1.28,1.28,0,0,0,.2-.615,1.35,1.35,0,0,0-.118-.6,1.886,1.886,0,0,0-.369-.539,2.732,2.732,0,0,0-.559-.448Z" transform="translate(-6.839 -6.497)" fill="#0255ce"/>
        <path id="Path_1050" data-name="Path 1050" d="M62.536,60.159l-3.8-3.361.578-.654,3.8,3.361Zm-1.128,1.276-.527-.466,2.811-3.182.527.466Z" transform="translate(-6.73 -6.688)" fill="#0255ce"/>
        <path id="Path_1051" data-name="Path 1051" d="M58.909,62.247,55.155,57.5l.685-.541,4.36,5.512-.626.495Zm-3.626.929-.061-.077a3.833,3.833,0,0,1-.534-.887,2.528,2.528,0,0,1-.2-.879,1.751,1.751,0,0,1,.148-.8,1.779,1.779,0,0,1,.54-.672,2.143,2.143,0,0,1,.769-.4,1.685,1.685,0,0,1,.781-.026,2.373,2.373,0,0,1,.778.318,4.233,4.233,0,0,1,.759.626l.326.412a4.409,4.409,0,0,1,.46.922,2.514,2.514,0,0,1,.151.849,1.677,1.677,0,0,1-.19.766,2,2,0,0,1-.558.656,1.854,1.854,0,0,1-.783.38,1.71,1.71,0,0,1-.815-.025,2.4,2.4,0,0,1-.807-.408,3.949,3.949,0,0,1-.764-.755Zm.623-.619.061.077a3.059,3.059,0,0,0,.5.51,1.8,1.8,0,0,0,.562.31,1.184,1.184,0,0,0,.582.055,1.2,1.2,0,0,0,.575-.263,1.354,1.354,0,0,0,.379-.443,1.238,1.238,0,0,0,.131-.492,1.616,1.616,0,0,0-.051-.51,2.481,2.481,0,0,0-.187-.486l-.754-.953a2.717,2.717,0,0,0-.59-.323,1.361,1.361,0,0,0-.641-.085,1.328,1.328,0,0,0-.663.3,1.2,1.2,0,0,0-.385.489,1.226,1.226,0,0,0-.078.582,1.859,1.859,0,0,0,.172.618,3.114,3.114,0,0,0,.388.614Z" transform="translate(-6.563 -6.72)" fill="#0255ce"/>
        <path id="Path_1052" data-name="Path 1052" d="M50.8,62.764a2.5,2.5,0,0,1,.936-.284,2.181,2.181,0,0,1,.889.115,2.275,2.275,0,0,1,.775.476,2.859,2.859,0,0,1,.6.8l.091.175a3.1,3.1,0,0,1,.345,1.063,2.467,2.467,0,0,1-.062.962,2.128,2.128,0,0,1-.4.782,2.047,2.047,0,0,1-.653.534,2.163,2.163,0,0,1-.919.265,1.711,1.711,0,0,1-.821-.166,2.245,2.245,0,0,1-.7-.527,3.759,3.759,0,0,1-.562-.819l-.179-.346,3.366-1.745.326.629-2.6,1.345.03.058a2.165,2.165,0,0,0,.427.518,1.182,1.182,0,0,0,.575.294,1.1,1.1,0,0,0,.72-.141,1.182,1.182,0,0,0,.425-.363,1.16,1.16,0,0,0,.211-.521,1.842,1.842,0,0,0-.029-.656,3.014,3.014,0,0,0-.286-.766l-.091-.175a2.3,2.3,0,0,0-.4-.559,1.741,1.741,0,0,0-.517-.356,1.417,1.417,0,0,0-.593-.115,1.447,1.447,0,0,0-.629.173,1.512,1.512,0,0,0-.605.525,1.93,1.93,0,0,0-.265.7l-.659-.129A2.428,2.428,0,0,1,49.7,63.9a1.992,1.992,0,0,1,.386-.612A2.415,2.415,0,0,1,50.8,62.764Z" transform="translate(-6.371 -6.935)" fill="#0255ce"/>
        <path id="Path_1053" data-name="Path 1053" d="M47.342,69.726l-1.494-4.852.834-.257,1.494,4.852Zm-1.628.5-.207-.673,4.058-1.25.207.673Z" transform="translate(-6.212 -7.019)" fill="#0255ce"/>
        <path id="Path_1054" data-name="Path 1054" d="M43.16,68.921l-1.514.182a2.26,2.26,0,0,1-1.055-.091,1.473,1.473,0,0,1-.7-.506,1.621,1.621,0,0,1-.32-.812,1.789,1.789,0,0,1,.042-.671,1.486,1.486,0,0,1,.3-.575,1.69,1.69,0,0,1,.549-.43,2.389,2.389,0,0,1,.791-.223l2.143-.257.6,5.04-.862.1-.52-4.332-1.281.154a1.154,1.154,0,0,0-.58.207.794.794,0,0,0-.28.388,1.073,1.073,0,0,0-.044.459,1.093,1.093,0,0,0,.152.435.843.843,0,0,0,.365.325,1.067,1.067,0,0,0,.614.077l1.514-.182Z" transform="translate(-5.98 -7.055)" fill="#0255ce"/>
        <path id="Path_1055" data-name="Path 1055" d="M32.474,67.746l1.641.287-.11.686-1.34-.234a2.386,2.386,0,0,0-.675-.037.825.825,0,0,0-.443.165.586.586,0,0,0-.2.365.619.619,0,0,0,.024.328.58.58,0,0,0,.187.266,1.134,1.134,0,0,0,.356.2,2.628,2.628,0,0,0,.514.138l1.1.192.753-4.307.855.15-.875,5L32.3,70.6a4.059,4.059,0,0,1-.84-.233,2.016,2.016,0,0,1-.6-.367,1.163,1.163,0,0,1-.342-.5,1.258,1.258,0,0,1-.037-.635,1.043,1.043,0,0,1,.168-.414,1.07,1.07,0,0,1,.336-.313,1.5,1.5,0,0,1,.489-.181,2.322,2.322,0,0,1,.627-.019Zm.385-2.2,1.95.341-.546.619-1.525-.267a1.737,1.737,0,0,0-.607-.016.753.753,0,0,0-.4.2.7.7,0,0,0-.191.386.678.678,0,0,0,.05.423.714.714,0,0,0,.306.32,1.658,1.658,0,0,0,.575.2l1.3.227-.129.682-1.622-.284-.264-.313a1.612,1.612,0,0,1-.662-.325,1.193,1.193,0,0,1-.358-.51,1.134,1.134,0,0,1-.049-.59,1.388,1.388,0,0,1,.242-.6,1.2,1.2,0,0,1,.457-.382,1.879,1.879,0,0,1,.652-.162,3.418,3.418,0,0,1,.821.051Z" transform="translate(-5.624 -7.053)" fill="#0255ce"/>
        <path id="Path_1056" data-name="Path 1056" d="M28.471,65.844l-3.512,2.617-.815-.313,1.819-4.739.815.313-1.326,3.456,3.512-2.617.806.309-1.819,4.739-.806-.309Z" transform="translate(-5.377 -6.972)" fill="#0255ce"/>
        <path id="Path_1057" data-name="Path 1057" d="M21.266,66.588l-.727-.474,1.1-1.551a5.96,5.96,0,0,1,.819-.956,3.676,3.676,0,0,1,.78-.561,2.689,2.689,0,0,1,.733-.256,3.1,3.1,0,0,1,.676-.058l.362.236-.407.581-.152-.093q-.23.069-.457.15a2.591,2.591,0,0,0-.478.243,3.2,3.2,0,0,0-.53.444,5.831,5.831,0,0,0-.616.747Zm-.181-.118L18.527,64.8,21.3,60.549l.727.474L19.692,64.6l1.831,1.2Zm3.7-2.8-4.422-2.88,1.207-1.851.727.474-.817,1.254L24.447,62.6l.817-1.254.731.477Z" transform="translate(-5.157 -6.797)" fill="#0255ce"/>
        <path id="Path_1058" data-name="Path 1058" d="M18.145,57.751a2.5,2.5,0,0,1,.554.806,2.181,2.181,0,0,1,.159.882,2.274,2.274,0,0,1-.219.882,2.855,2.855,0,0,1-.581.813l-.139.139a3.1,3.1,0,0,1-.909.65,2.467,2.467,0,0,1-.936.232,2.13,2.13,0,0,1-.866-.143,2.049,2.049,0,0,1-.707-.461,2.164,2.164,0,0,1-.531-.8,1.711,1.711,0,0,1-.09-.833,2.247,2.247,0,0,1,.292-.823,3.759,3.759,0,0,1,.61-.783l.275-.275,2.681,2.681-.5.5-2.067-2.067-.047.047a2.166,2.166,0,0,0-.365.564,1.181,1.181,0,0,0-.106.637,1.1,1.1,0,0,0,.352.644,1.183,1.183,0,0,0,.474.3,1.159,1.159,0,0,0,.561.043,1.842,1.842,0,0,0,.617-.226,3.025,3.025,0,0,0,.644-.5l.139-.139a2.29,2.29,0,0,0,.411-.551,1.741,1.741,0,0,0,.182-.6,1.417,1.417,0,0,0-.07-.6,1.449,1.449,0,0,0-.355-.547,1.513,1.513,0,0,0-.683-.418,1.928,1.928,0,0,0-.75-.04L16.1,57.1a2.427,2.427,0,0,1,.63-.04,1.992,1.992,0,0,1,.7.182A2.414,2.414,0,0,1,18.145,57.751Z" transform="translate(-4.975 -6.723)" fill="#0255ce"/>
        <path id="Path_1059" data-name="Path 1059" d="M13.855,56.965l-.09.06a3.143,3.143,0,0,1-.934.436,2.419,2.419,0,0,1-.938.077,2.05,2.05,0,0,1-.857-.3,2.434,2.434,0,0,1-1.071-1.592,2.041,2.041,0,0,1,.043-.911,2.377,2.377,0,0,1,.422-.844,3.146,3.146,0,0,1,.756-.7l.09-.06a3.145,3.145,0,0,1,.934-.436,2.437,2.437,0,0,1,.941-.073,2.129,2.129,0,0,1,.858.3,2.286,2.286,0,0,1,.694.687,2.316,2.316,0,0,1,.377.9,2.176,2.176,0,0,1-.043.911,2.481,2.481,0,0,1-.425.84,3.146,3.146,0,0,1-.757.7Zm-.574-.66.09-.06a2.806,2.806,0,0,0,.546-.475,1.889,1.889,0,0,0,.341-.552,1.354,1.354,0,0,0,.085-.6,1.323,1.323,0,0,0-.233-.607,1.286,1.286,0,0,0-.469-.437,1.31,1.31,0,0,0-.59-.146,1.888,1.888,0,0,0-.64.108,2.671,2.671,0,0,0-.648.323l-.09.06a2.6,2.6,0,0,0-.535.473,1.822,1.822,0,0,0-.342.558,1.293,1.293,0,0,0-.091.6,1.263,1.263,0,0,0,.226.6,1.28,1.28,0,0,0,.476.438,1.35,1.35,0,0,0,.594.143,1.884,1.884,0,0,0,.644-.111,2.728,2.728,0,0,0,.636-.315Z" transform="translate(-4.821 -6.549)" fill="#0255ce"/>
        <path id="Path_1060" data-name="Path 1060" d="M10.519,46.634a1.3,1.3,0,0,0-.291-.509,1.179,1.179,0,0,0-.46-.309.967.967,0,0,0-.545-.031L8.976,45a1.547,1.547,0,0,1,.893.041,2.082,2.082,0,0,1,.812.508,2.11,2.11,0,0,1,.519.875,2.318,2.318,0,0,1,.105,1.014,1.981,1.981,0,0,1-.319.837,2.471,2.471,0,0,1-.646.639,3.4,3.4,0,0,1-.887.419l-.188.059a3.359,3.359,0,0,1-.963.158,2.466,2.466,0,0,1-.9-.157,1.981,1.981,0,0,1-.738-.507,2.317,2.317,0,0,1-.49-.894A2.136,2.136,0,0,1,6.1,46.923a1.791,1.791,0,0,1,.419-.863,1.9,1.9,0,0,1,.812-.548l.246.788a1.25,1.25,0,0,0-.489.339,1.112,1.112,0,0,0-.262.514,1.154,1.154,0,0,0,.032.624,1.307,1.307,0,0,0,.352.593,1.176,1.176,0,0,0,.53.282,1.97,1.97,0,0,0,.627.04,3.219,3.219,0,0,0,.642-.132L9.2,48.5a3.293,3.293,0,0,0,.607-.258,1.881,1.881,0,0,0,.494-.385,1.227,1.227,0,0,0,.276-.533,1.349,1.349,0,0,0-.055-.691Z" transform="translate(-4.669 -6.25)" fill="#0255ce"/>
        <path id="Path_1061" data-name="Path 1061" d="M8.731,40.325,4.692,38.89l-.061-.833L9.86,39.941l.044.6L5,43.159l-.061-.833ZM4.963,42.578l5.063-.372.064.866-5.063.372ZM9.739,38.3l-5.063.372-.064-.87,5.063-.372Z" transform="translate(-4.613 -5.956)" fill="#0255ce"/>
        <path id="Path_1062" data-name="Path 1062" d="M7.293,35.606l-.107-.017a3.143,3.143,0,0,1-.982-.314,2.419,2.419,0,0,1-.741-.58,2.051,2.051,0,0,1-.426-.8A2.434,2.434,0,0,1,5.333,32a2.04,2.04,0,0,1,.65-.64,2.377,2.377,0,0,1,.883-.333,3.145,3.145,0,0,1,1.031,0l.1.013a3.146,3.146,0,0,1,.982.314,2.437,2.437,0,0,1,.74.585,2.129,2.129,0,0,1,.426.8,2.285,2.285,0,0,1,.043.975,2.318,2.318,0,0,1-.338.921,2.177,2.177,0,0,1-.65.64,2.482,2.482,0,0,1-.882.328,3.145,3.145,0,0,1-1.028,0Zm.027-.874.107.017a2.8,2.8,0,0,0,.723.022,1.89,1.89,0,0,0,.625-.174,1.352,1.352,0,0,0,.473-.387,1.324,1.324,0,0,0,.241-.6,1.286,1.286,0,0,0-.048-.639,1.31,1.31,0,0,0-.334-.508,1.89,1.89,0,0,0-.543-.355,2.669,2.669,0,0,0-.695-.2l-.107-.017a2.6,2.6,0,0,0-.714-.016,1.825,1.825,0,0,0-.631.178,1.293,1.293,0,0,0-.477.382,1.264,1.264,0,0,0-.245.6,1.28,1.28,0,0,0,.052.644,1.35,1.35,0,0,0,.339.508,1.882,1.882,0,0,0,.548.356A2.728,2.728,0,0,0,7.32,34.732Z" transform="translate(-4.626 -5.703)" fill="#0255ce"/>
        <path id="Path_1063" data-name="Path 1063" d="M6.609,26.746l4.8,1.658-.285.825-4.8-1.658Zm.556-1.61.665.23L6.444,29.38l-.665-.23Z" transform="translate(-4.658 -5.475)" fill="#0255ce"/>
        <path id="Path_1064" data-name="Path 1064" d="M9.1,23.35l5.278,2.962-.427.761-6.129-3.44.39-.7Zm3-2.238.086.048a3.834,3.834,0,0,1,.832.617,2.526,2.526,0,0,1,.524.735,1.752,1.752,0,0,1,.17.8,1.779,1.779,0,0,1-.243.827,2.143,2.143,0,0,1-.557.667,1.685,1.685,0,0,1-.713.321,2.372,2.372,0,0,1-.84,0,4.236,4.236,0,0,1-.94-.291l-.458-.257a4.418,4.418,0,0,1-.776-.678,2.513,2.513,0,0,1-.463-.728,1.676,1.676,0,0,1-.116-.781,2,2,0,0,1,.266-.819,1.855,1.855,0,0,1,.579-.649,1.709,1.709,0,0,1,.764-.287,2.4,2.4,0,0,1,.9.07,3.949,3.949,0,0,1,.985.405Zm-.341.809-.086-.048a3.061,3.061,0,0,0-.661-.28,1.8,1.8,0,0,0-.637-.072,1.184,1.184,0,0,0-.559.171,1.2,1.2,0,0,0-.432.462,1.354,1.354,0,0,0-.182.554,1.238,1.238,0,0,0,.066.5,1.619,1.619,0,0,0,.241.453,2.477,2.477,0,0,0,.358.378l1.06.595a2.71,2.71,0,0,0,.669.074,1.361,1.361,0,0,0,.625-.165,1.328,1.328,0,0,0,.5-.533,1.2,1.2,0,0,0,.169-.6,1.225,1.225,0,0,0-.149-.568,1.859,1.859,0,0,0-.394-.506,3.118,3.118,0,0,0-.589-.42Z" transform="translate(-4.738 -5.298)" fill="#0255ce"/>
        <path id="Path_1065" data-name="Path 1065" d="M16.377,19.972a2.5,2.5,0,0,1-.757.619,2.18,2.18,0,0,1-.866.232,2.275,2.275,0,0,1-.9-.145,2.855,2.855,0,0,1-.854-.51l-.15-.127a3.1,3.1,0,0,1-.724-.852,2.467,2.467,0,0,1-.31-.913,2.131,2.131,0,0,1,.07-.875,2.05,2.05,0,0,1,.4-.743,2.167,2.167,0,0,1,.749-.6,1.711,1.711,0,0,1,.822-.159,2.246,2.246,0,0,1,.844.222,3.764,3.764,0,0,1,.831.543l.3.251-2.447,2.9-.541-.457,1.887-2.232-.05-.042a2.167,2.167,0,0,0-.592-.317,1.181,1.181,0,0,0-.644-.053,1.1,1.1,0,0,0-.612.4,1.181,1.181,0,0,0-.255.5,1.157,1.157,0,0,0,0,.562,1.842,1.842,0,0,0,.276.6,3.023,3.023,0,0,0,.556.6l.15.127a2.293,2.293,0,0,0,.583.364,1.742,1.742,0,0,0,.614.132,1.417,1.417,0,0,0,.593-.12,1.447,1.447,0,0,0,.516-.4,1.511,1.511,0,0,0,.359-.716,1.929,1.929,0,0,0-.023-.75l.658-.132a2.431,2.431,0,0,1,.092.625,2,2,0,0,1-.123.713A2.419,2.419,0,0,1,16.377,19.972Z" transform="translate(-4.894 -5.113)" fill="#0255ce"/>
        <path id="Path_1066" data-name="Path 1066" d="M16.962,12.1,20.2,16.009l-.673.556L16.29,12.653Zm1.313-1.085.448.542-3.272,2.706L15,13.717Z" transform="translate(-5.019 -4.922)" fill="#0255ce"/>
        <path id="Path_1067" data-name="Path 1067" d="M21.032,11.341l1.327-.751a2.261,2.261,0,0,1,1.009-.323,1.474,1.474,0,0,1,.844.2,1.62,1.62,0,0,1,.608.626,1.79,1.79,0,0,1,.22.636,1.486,1.486,0,0,1-.055.646,1.69,1.69,0,0,1-.341.608,2.393,2.393,0,0,1-.644.51l-1.878,1.063-2.5-4.418.755-.428,2.15,3.8,1.123-.636a1.154,1.154,0,0,0,.456-.414.794.794,0,0,0,.108-.466,1.072,1.072,0,0,0-.136-.44,1.093,1.093,0,0,0-.308-.343.843.843,0,0,0-.462-.159,1.068,1.068,0,0,0-.6.165l-1.327.751Z" transform="translate(-5.2 -4.871)" fill="#0255ce"/>
        <path id="Path_1068" data-name="Path 1068" d="M31.245,8.29l-1.624.368-.163-.675,1.327-.3a2.387,2.387,0,0,0,.637-.226.825.825,0,0,0,.345-.324.587.587,0,0,0,.046-.414.619.619,0,0,0-.148-.294.579.579,0,0,0-.275-.173,1.134,1.134,0,0,0-.405-.048,2.629,2.629,0,0,0-.527.071l-1.084.246.966,4.265-.846.192L28.37,6.026l1.93-.438a4.064,4.064,0,0,1,.865-.109,2.016,2.016,0,0,1,.7.105,1.162,1.162,0,0,1,.507.328,1.259,1.259,0,0,1,.279.572,1.044,1.044,0,0,1,0,.446,1.07,1.07,0,0,1-.189.418,1.5,1.5,0,0,1-.381.356,2.322,2.322,0,0,1-.571.259Zm.494,2.178-1.931.438.265-.782,1.51-.342a1.737,1.737,0,0,0,.566-.22.752.752,0,0,0,.29-.335.7.7,0,0,0,.028-.43.679.679,0,0,0-.209-.371.715.715,0,0,0-.406-.177,1.658,1.658,0,0,0-.607.041l-1.286.291L29.815,7.9l1.606-.364.365.187a1.613,1.613,0,0,1,.737.045,1.193,1.193,0,0,1,.528.333,1.133,1.133,0,0,1,.273.525,1.387,1.387,0,0,1,.006.643,1.2,1.2,0,0,1-.275.529,1.88,1.88,0,0,1-.539.4,3.411,3.411,0,0,1-.778.27Z" transform="translate(-5.542 -4.706)" fill="#0255ce"/>
        <path id="Path_1069" data-name="Path 1069" d="M35.585,8.474,37.811,4.7l.872-.027.157,5.074-.872.027-.114-3.7L35.627,9.848l-.863.027L34.608,4.8l.863-.027Z" transform="translate(-5.786 -4.674)" fill="#0255ce"/>
        <path id="Path_1070" data-name="Path 1070" d="M42.212,4.942l.853.159-.423,1.854a5.956,5.956,0,0,1-.391,1.2,3.671,3.671,0,0,1-.506.817,2.689,2.689,0,0,1-.579.517,3.1,3.1,0,0,1-.6.312l-.424-.079L40.3,9.03l.176.028q.186-.151.364-.314a2.6,2.6,0,0,0,.348-.407,3.2,3.2,0,0,0,.32-.613,5.833,5.833,0,0,0,.283-.926Zm.212.04,3,.561-.932,4.99-.853-.159.785-4.2-2.149-.4Zm-2.346,4,5.188.969-.406,2.172-.853-.159.275-1.471L40.8,9.842l-.275,1.471-.858-.16Z" transform="translate(-5.984 -4.685)" fill="#0255ce"/>
        <path id="Path_1071" data-name="Path 1071" d="M48.415,11.922a2.5,2.5,0,0,1-.82-.533,2.18,2.18,0,0,1-.485-.754,2.277,2.277,0,0,1-.135-.9,2.856,2.856,0,0,1,.225-.973l.075-.182a3.1,3.1,0,0,1,.591-.949,2.466,2.466,0,0,1,.775-.573,2.13,2.13,0,0,1,.855-.2,2.049,2.049,0,0,1,.829.156,2.165,2.165,0,0,1,.8.532,1.712,1.712,0,0,1,.4.735,2.247,2.247,0,0,1,.045.872,3.758,3.758,0,0,1-.264.957l-.149.36-3.5-1.451.271-.655,2.7,1.119.025-.061a2.166,2.166,0,0,0,.121-.661,1.181,1.181,0,0,0-.146-.629,1.1,1.1,0,0,0-.571-.46,1.182,1.182,0,0,0-.551-.091,1.158,1.158,0,0,0-.534.175,1.842,1.842,0,0,0-.484.445,3.02,3.02,0,0,0-.4.712l-.075.182a2.289,2.289,0,0,0-.169.666,1.74,1.74,0,0,0,.061.625,1.418,1.418,0,0,0,.294.528,1.45,1.45,0,0,0,.538.37,1.511,1.511,0,0,0,.791.125,1.93,1.93,0,0,0,.708-.25l.326.587a2.429,2.429,0,0,1-.567.278,1.994,1.994,0,0,1-.717.1,2.415,2.415,0,0,1-.863-.2Z" transform="translate(-6.27 -4.76)" fill="#0255ce"/>
        <path id="Path_1072" data-name="Path 1072" d="M52.789,11.056l.06-.09a3.144,3.144,0,0,1,.7-.758,2.419,2.419,0,0,1,.838-.428,2.052,2.052,0,0,1,.907-.049,2.434,2.434,0,0,1,1.6,1.066,2.04,2.04,0,0,1,.307.859,2.376,2.376,0,0,1-.07.941,3.146,3.146,0,0,1-.433.935l-.06.09a3.145,3.145,0,0,1-.7.758,2.437,2.437,0,0,1-.842.425,2.128,2.128,0,0,1-.907.049,2.284,2.284,0,0,1-.9-.371,2.316,2.316,0,0,1-.693-.694,2.176,2.176,0,0,1-.307-.859,2.48,2.48,0,0,1,.074-.938,3.144,3.144,0,0,1,.426-.936Zm.782.392-.06.09a2.8,2.8,0,0,0-.324.647,1.891,1.891,0,0,0-.106.64,1.354,1.354,0,0,0,.152.592,1.324,1.324,0,0,0,.446.473,1.287,1.287,0,0,0,.6.226,1.311,1.311,0,0,0,.6-.089,1.888,1.888,0,0,0,.551-.343,2.671,2.671,0,0,0,.477-.545l.06-.09a2.6,2.6,0,0,0,.315-.641,1.825,1.825,0,0,0,.1-.647,1.294,1.294,0,0,0-.145-.594,1.264,1.264,0,0,0-.44-.474,1.28,1.28,0,0,0-.606-.224,1.35,1.35,0,0,0-.6.093,1.883,1.883,0,0,0-.553.347,2.733,2.733,0,0,0-.467.54Z" transform="translate(-6.477 -4.871)" fill="#0255ce"/>
      </g>
    </g>
  </g>
</svg>
