<svg xmlns="http://www.w3.org/2000/svg" width="63.881" height="63.884" viewBox="0 0 63.881 63.884">
  <g id="Group_2623" data-name="Group 2623" transform="translate(2608.003 -1906.004)">
    <g id="Group_1586" data-name="Group 1586" transform="translate(-3852)">
      <g id="Group_1464" data-name="Group 1464" transform="translate(835)">
        <g id="Group_1452" data-name="Group 1452" transform="translate(5 1)">
          <g id="Group_1449" data-name="Group 1449" transform="translate(404 1905)">
            <g id="пролистать_книгу" data-name="пролистать книгу">
              <path id="Path_1123" data-name="Path 1123" d="M66.14,36.479l4.889.416L70.7,40.74l-4.889-.416.064-.751,4.189.356.2-2.343-4.189-.356Z" transform="translate(-7.151 -4.2)" fill="#d1d1d1"/>
              <path id="Path_1124" data-name="Path 1124" d="M63.712,41.15,70.2,42.988l-.2.7-.75-.212-.024.086q.1.115.251.31a1.348,1.348,0,0,1,.228.509,1.54,1.54,0,0,1-.054.775,1.947,1.947,0,0,1-.6.967A2.061,2.061,0,0,1,68,46.594a3.148,3.148,0,0,1-1.363-.11,3.186,3.186,0,0,1-1.228-.623,2.092,2.092,0,0,1-.648-.947,1.921,1.921,0,0,1,0-1.126,1.57,1.57,0,0,1,.357-.686,1.4,1.4,0,0,1,.467-.323q.238-.092.39-.135l.02-.062-2.5-.707Zm3.929,1.883a2.729,2.729,0,0,0-.988-.11,1.481,1.481,0,0,0-.766.278,1.368,1.368,0,0,0-.412,1.5,1.524,1.524,0,0,0,.521.646,2.657,2.657,0,0,0,.871.416,2.58,2.58,0,0,0,.941.1,1.441,1.441,0,0,0,.766-.278,1.317,1.317,0,0,0-.052-2.137A2.653,2.653,0,0,0,67.641,43.033Z" transform="translate(-6.92 -4.67)" fill="#d1d1d1"/>
              <path id="Path_1125" data-name="Path 1125" d="M62.727,49.511a2.074,2.074,0,0,1,1.953-1.189,2.993,2.993,0,0,1,1.31.355,3.031,3.031,0,0,1,1.067.855,2.211,2.211,0,0,1-.619,3.173,2.115,2.115,0,0,1-1.145.3,3,3,0,0,1-1.32-.357,2.964,2.964,0,0,1-1.057-.853,2.074,2.074,0,0,1-.189-2.276Zm.6.307a1.294,1.294,0,0,0-.146.858,1.525,1.525,0,0,0,.388.739,2.6,2.6,0,0,0,.743.554,2.633,2.633,0,0,0,.888.276,1.545,1.545,0,0,0,.831-.118,1.447,1.447,0,0,0,.754-1.48,1.546,1.546,0,0,0-.393-.741,2.754,2.754,0,0,0-1.631-.83,1.526,1.526,0,0,0-.825.121,1.294,1.294,0,0,0-.606.621Z" transform="translate(-6.816 -5.39)" fill="#d1d1d1"/>
              <path id="Path_1126" data-name="Path 1126" d="M61.385,52.027l.561.424-.108.143a.716.716,0,0,0-.153.345.617.617,0,0,0,.1.375,2.44,2.44,0,0,0,.41.486q.288.282.766.671l1.679,1.381-1.972,2.61L58.758,55.5l.455-.6,3.354,2.535L63.653,56,62.3,54.882a7.942,7.942,0,0,1-.783-.728,2.555,2.555,0,0,1-.463-.658,1.127,1.127,0,0,1-.11-.628,1.346,1.346,0,0,1,.285-.637Z" transform="translate(-6.443 -5.762)" fill="#d1d1d1"/>
              <path id="Path_1127" data-name="Path 1127" d="M58.008,57.923l.853,4.389-.636.592L54.883,59.31l.552-.513,2.584,2.779-.862-4.38.646-.6,3.341,3.593-.552.513Z" transform="translate(-6.053 -6.221)" fill="#d1d1d1"/>
              <path id="Path_1128" data-name="Path 1128" d="M52.157,61.216a2.053,2.053,0,0,1,2.306-.034,3.309,3.309,0,0,1,1.42,2.208,2.172,2.172,0,0,1-.162,1.174,2.077,2.077,0,0,1-.8.9,2.2,2.2,0,0,1-.887.346,1.786,1.786,0,0,1-.863-.081,1.674,1.674,0,0,1-.713-.5l.633-.409a1.169,1.169,0,0,0,.645.291,1.148,1.148,0,0,0,.808-.21,1.325,1.325,0,0,0,.524-.613,1.5,1.5,0,0,0,.083-.818,2.379,2.379,0,0,0-.373-.912,2.524,2.524,0,0,0-.688-.734,1.516,1.516,0,0,0-.785-.272,1.323,1.323,0,0,0-.781.227,1.346,1.346,0,0,0-.392.376,1.1,1.1,0,0,0-.181.467,1.128,1.128,0,0,0,.051.515l-.633.409a1.748,1.748,0,0,1-.159-.829,1.768,1.768,0,0,1,.257-.82,2.131,2.131,0,0,1,.69-.686Z" transform="translate(-5.684 -6.648)" fill="#d1d1d1"/>
              <path id="Path_1129" data-name="Path 1129" d="M51.353,66.787l.271.648-3.678,1.539-.271-.648L49.16,67.7l-1.623-3.878.7-.291,1.623,3.878Z" transform="translate(-5.316 -6.918)" fill="#d1d1d1"/>
              <path id="Path_1130" data-name="Path 1130" d="M42.929,65.146a2,2,0,0,1,.864-.012,1.392,1.392,0,0,1,1.1,1.121,1.259,1.259,0,0,1-.014.7,1.173,1.173,0,0,1-.343.5,2.332,2.332,0,0,1-.55.351q-.314.148-.638.266-.424.153-.689.242a1.116,1.116,0,0,0-.376.192.268.268,0,0,0-.072.278l.005.025a1,1,0,0,0,.412.661,1.04,1.04,0,0,0,.815.087,1.355,1.355,0,0,0,.775-.415,1.4,1.4,0,0,0,.311-.586l.754.094a1.717,1.717,0,0,1-.348.791,1.915,1.915,0,0,1-.61.5,2.922,2.922,0,0,1-.714.264,3,3,0,0,1-.543.062,1.738,1.738,0,0,1-.632-.092,1.334,1.334,0,0,1-.584-.4,1.937,1.937,0,0,1-.39-.869l-.7-3.156.736-.164.144.649.037-.008a1.329,1.329,0,0,1,.175-.389,1.475,1.475,0,0,1,.4-.406,1.834,1.834,0,0,1,.675-.286Zm.035.686a1.5,1.5,0,0,0-.7.335,1.2,1.2,0,0,0-.357.544,1.156,1.156,0,0,0-.029.605l.15.673a.451.451,0,0,1,.183-.149,3.545,3.545,0,0,1,.344-.159l.383-.144.3-.106a2.884,2.884,0,0,0,.509-.241.947.947,0,0,0,.344-.335.643.643,0,0,0,.051-.476.676.676,0,0,0-.413-.517A1.3,1.3,0,0,0,42.964,65.832Z" transform="translate(-4.635 -7.075)" fill="#d1d1d1"/>
              <path id="Path_1131" data-name="Path 1131" d="M39.638,70.191l.03.7-3.983.169-.03-.7,1.608-.068-.178-4.2.753-.032.178,4.2Z" transform="translate(-4.122 -7.172)" fill="#d1d1d1"/>
              <path id="Path_1132" data-name="Path 1132" d="M32.627,69.111l-1.393-.189a1.833,1.833,0,0,1-1.248-.611,1.47,1.47,0,0,1-.3-1.16,1.6,1.6,0,0,1,.31-.767,1.484,1.484,0,0,1,.672-.486,2.046,2.046,0,0,1,.991-.078L33.7,66.1l-.66,4.862-.747-.1.565-4.166-1.291-.175a1.119,1.119,0,0,0-.76.136.75.75,0,0,0-.366.563.8.8,0,0,0,.2.669,1.091,1.091,0,0,0,.695.343l1.393.189Z" transform="translate(-3.52 -7.145)" fill="#d1d1d1"/>
              <path id="Path_1133" data-name="Path 1133" d="M25.746,64.418,23.818,68.93l-.693-.3.839-1.962-.458-.2-2.46,1.269-.893-.382,2.75-1.4-.845-3.127.893.382.667,2.536.623.266.813-1.9Z" transform="translate(-2.564 -6.849)" fill="#d1d1d1"/>
              <path id="Path_1134" data-name="Path 1134" d="M16.6,62.755l.384-.589,2.269,1.479-.384.589Zm.968,3.148,2.679-4.11.632.412L18.2,66.315Zm-2.6-1.7,2.679-4.11.632.412L15.6,64.615Z" transform="translate(-2.043 -6.573)" fill="#d1d1d1"/>
              <path id="Path_1135" data-name="Path 1135" d="M15.123,59.456,10.8,60.594l-.632-.6,3.367-3.569.548.517-2.6,2.76L15.8,58.555l.641.6-3.367,3.569-.548-.517Z" transform="translate(-1.561 -6.205)" fill="#d1d1d1"/>
              <path id="Path_1136" data-name="Path 1136" d="M6.944,56.235l.558-.428,1.384,1.8,3.335-2.559.459.6L8.788,58.637Z" transform="translate(-1.238 -6.066)" fill="#d1d1d1"/>
              <path id="Path_1137" data-name="Path 1137" d="M11.394,50.713a1.652,1.652,0,0,1,.134.316.9.9,0,0,1,.048.21l-.676.146a1.454,1.454,0,0,0-.185-.452.582.582,0,0,0-.343-.24,1.5,1.5,0,0,0-.619-.012l-.4.058L5.862,54.671l-.387-.72,2.8-3.044-.024-.045-4.085.657-.387-.72,5.938-.826a2.125,2.125,0,0,1,.719.009A1.3,1.3,0,0,1,11,50.23a1.488,1.488,0,0,1,.394.483Z" transform="translate(-0.92 -5.553)" fill="#d1d1d1"/>
              <path id="Path_1138" data-name="Path 1138" d="M6.733,44.635l-4.781,1.1-.867-3.76,4.781-1.1.169.735-4.1.945.528,2.291,4.1-.945Z" transform="translate(-0.649 -4.642)" fill="#d1d1d1"/>
              <path id="Path_1139" data-name="Path 1139" d="M7.486,39.373l-6.742.234-.025-.728.779-.027v-.089q-.131-.079-.334-.219a1.349,1.349,0,0,1-.372-.415A1.54,1.54,0,0,1,.6,37.374a1.948,1.948,0,0,1,.272-1.1,2.061,2.061,0,0,1,.852-.768,3.147,3.147,0,0,1,1.332-.312,3.186,3.186,0,0,1,1.36.218,2.092,2.092,0,0,1,.907.7,1.921,1.921,0,0,1,.347,1.072,1.57,1.57,0,0,1-.13.762,1.4,1.4,0,0,1-.346.45q-.2.16-.33.248v.064l2.592-.09ZM3.17,38.781a2.728,2.728,0,0,0,.974-.2,1.481,1.481,0,0,0,.644-.5,1.368,1.368,0,0,0-.067-1.554,1.524,1.524,0,0,0-.693-.455,2.658,2.658,0,0,0-.957-.13,2.583,2.583,0,0,0-.927.192,1.442,1.442,0,0,0-.644.5A1.4,1.4,0,0,0,1.542,38.2a1.4,1.4,0,0,0,.661.45,2.653,2.653,0,0,0,.966.131Z" transform="translate(-0.6 -4.071)" fill="#d1d1d1"/>
              <path id="Path_1140" data-name="Path 1140" d="M6.017,31.1a2.074,2.074,0,0,1-1.492,1.732,2.993,2.993,0,0,1-1.356.065,3.029,3.029,0,0,1-1.278-.485,2.211,2.211,0,0,1-.391-3.2,2.115,2.115,0,0,1,1-.63,3,3,0,0,1,1.366-.067A2.966,2.966,0,0,1,5.137,29a2.074,2.074,0,0,1,.88,2.1ZM5.349,31a1.294,1.294,0,0,0-.125-.861,1.525,1.525,0,0,0-.6-.583,2.6,2.6,0,0,0-.878-.3,2.629,2.629,0,0,0-.93.01,1.546,1.546,0,0,0-.754.368,1.448,1.448,0,0,0-.261,1.64,1.545,1.545,0,0,0,.6.584,2.631,2.631,0,0,0,.881.3,2.606,2.606,0,0,0,.927-.011,1.525,1.525,0,0,0,.748-.369A1.294,1.294,0,0,0,5.349,31Z" transform="translate(-0.638 -3.395)" fill="#d1d1d1"/>
              <path id="Path_1141" data-name="Path 1141" d="M6.355,28.282l-.664-.23.058-.169a.716.716,0,0,0,.038-.375.618.618,0,0,0-.216-.325,2.441,2.441,0,0,0-.54-.335q-.361-.179-.936-.4l-2.024-.794L3.14,22.561l4.638,1.6-.246.713L3.558,23.5,2.97,25.2l1.63.644a7.923,7.923,0,0,1,.97.45,2.554,2.554,0,0,1,.644.483,1.126,1.126,0,0,1,.3.563,1.346,1.346,0,0,1-.074.694Z" transform="translate(-0.748 -2.802)" fill="#d1d1d1"/>
              <path id="Path_1142" data-name="Path 1142" d="M7.726,21.579,5.574,17.66,6,16.9l4.279,2.4-.369.657L6.6,18.1l2.159,3.908-.432.769-4.279-2.4.369-.657Z" transform="translate(-0.947 -2.234)" fill="#d1d1d1"/>
              <path id="Path_1143" data-name="Path 1143" d="M12.44,16.782a2.054,2.054,0,0,1-2.186.735,3.31,3.31,0,0,1-2.026-1.671,2.171,2.171,0,0,1-.2-1.167,2.077,2.077,0,0,1,.486-1.106,2.2,2.2,0,0,1,.74-.6,1.786,1.786,0,0,1,.847-.186,1.675,1.675,0,0,1,.831.256l-.478.583a1.169,1.169,0,0,0-.7-.081,1.147,1.147,0,0,0-.705.446,1.324,1.324,0,0,0-.313.743,1.5,1.5,0,0,0,.17.8,2.379,2.379,0,0,0,.633.755,2.522,2.522,0,0,0,.879.49,1.515,1.515,0,0,0,.83.02,1.322,1.322,0,0,0,.675-.455,1.346,1.346,0,0,0,.259-.477,1.1,1.1,0,0,0,.03-.5A1.127,1.127,0,0,0,12,14.9l.478-.583a1.748,1.748,0,0,1,.4.741,1.767,1.767,0,0,1,0,.86,2.131,2.131,0,0,1-.443.864Z" transform="translate(-1.345 -1.82)" fill="#d1d1d1"/>
              <path id="Path_1144" data-name="Path 1144" d="M11.479,11.157l-.458-.533,3.026-2.6.458.533L13.283,9.61,16.02,12.8l-.572.491L12.711,10.1Z" transform="translate(-1.647 -1.342)" fill="#d1d1d1"/>
              <path id="Path_1145" data-name="Path 1145" d="M20.1,10.091a1.994,1.994,0,0,1-.819.276,1.392,1.392,0,0,1-1.387-.731,1.26,1.26,0,0,1-.2-.674,1.172,1.172,0,0,1,.173-.583,2.334,2.334,0,0,1,.416-.5q.253-.237.526-.449.357-.276.582-.441a1.116,1.116,0,0,0,.3-.3.268.268,0,0,0-.016-.287l-.013-.022a1,1,0,0,0-.595-.5,1.04,1.04,0,0,0-.8.166,1.356,1.356,0,0,0-.611.632,1.4,1.4,0,0,0-.117.653l-.747.141a1.718,1.718,0,0,1,.089-.859,1.917,1.917,0,0,1,.429-.658,2.921,2.921,0,0,1,.6-.469,2.989,2.989,0,0,1,.5-.225,1.738,1.738,0,0,1,.63-.106,1.333,1.333,0,0,1,.679.2,1.937,1.937,0,0,1,.637.708L21.99,8.857l-.651.381L21,8.663l-.033.019a1.327,1.327,0,0,1-.048.424,1.475,1.475,0,0,1-.254.508,1.832,1.832,0,0,1-.565.477Zm-.243-.642a1.5,1.5,0,0,0,.562-.533,1.2,1.2,0,0,0,.173-.627,1.156,1.156,0,0,0-.158-.585l-.349-.6a.45.45,0,0,1-.129.2,3.551,3.551,0,0,1-.279.256q-.163.133-.321.255t-.256.2a2.883,2.883,0,0,0-.411.385.947.947,0,0,0-.225.424.643.643,0,0,0,.1.469.676.676,0,0,0,.551.366,1.3,1.3,0,0,0,.742-.2Z" transform="translate(-2.225 -1.053)" fill="#d1d1d1"/>
              <path id="Path_1146" data-name="Path 1146" d="M21.538,4.287l-.244-.659,3.738-1.386.244.659-1.51.56L25.228,7.4l-.707.262-1.462-3.94Z" transform="translate(-2.679 -0.761)" fill="#d1d1d1"/>
              <path id="Path_1147" data-name="Path 1147" d="M28.491,3.243,29.874,3a1.834,1.834,0,0,1,1.376.2,1.469,1.469,0,0,1,.645,1,1.6,1.6,0,0,1-.06.825,1.484,1.484,0,0,1-.49.669,2.046,2.046,0,0,1-.919.379L28.4,6.439l-.864-4.83.742-.133.74,4.138L30.3,5.385a1.119,1.119,0,0,0,.682-.362.751.751,0,0,0,.176-.648.8.8,0,0,0-.4-.575A1.09,1.09,0,0,0,30,3.687l-1.384.247Z" transform="translate(-3.306 -0.684)" fill="#d1d1d1"/>
              <path id="Path_1148" data-name="Path 1148" d="M36.467,5.483,36.9.6l.751.067-.189,2.125.5.044L39.9.863l.967.086L38.69,3.128l1.773,2.71L39.5,5.752l-1.42-2.2-.675-.06L37.218,5.55Z" transform="translate(-4.203 -0.596)" fill="#d1d1d1"/>
              <path id="Path_1149" data-name="Path 1149" d="M45.82,4.237l-.186.678L43.021,4.2l.186-.678Zm-1.88-2.7-1.3,4.731-.727-.2,1.3-4.731Zm2.994.823-1.3,4.731-.727-.2,1.3-4.731Z" transform="translate(-4.75 -0.67)" fill="#d1d1d1"/>
              <path id="Path_1150" data-name="Path 1150" d="M48.087,6.863l3.767-2.408.784.374L50.527,9.257l-.681-.324L51.48,5.507,47.724,7.921l-.8-.379L49.04,3.113l.681.324Z" transform="translate(-5.254 -0.848)" fill="#d1d1d1"/>
              <path id="Path_1151" data-name="Path 1151" d="M57.015,7.691l-.4.577-1.868-1.3-2.4,3.453-.619-.43,2.8-4.03Z" transform="translate(-5.737 -1.135)" fill="#d1d1d1"/>
              <path id="Path_1152" data-name="Path 1152" d="M54.205,14.17a1.649,1.649,0,0,1-.224-.26.9.9,0,0,1-.11-.186l.6-.345a1.45,1.45,0,0,0,.314.374.582.582,0,0,0,.4.124,1.5,1.5,0,0,0,.593-.178l.367-.178,2.118-4.81.589.568-1.739,3.755.037.035,3.689-1.874.589.568-5.4,2.6a2.125,2.125,0,0,1-.687.211,1.3,1.3,0,0,1-.607-.066,1.488,1.488,0,0,1-.529-.338Z" transform="translate(-5.952 -1.411)" fill="#d1d1d1"/>
            </g>
          </g>
        </g>
      </g>
    </g>
    <path id="Path_1215" data-name="Path 1215" d="M-2507.59,1922h10.934v10.659h-10.934V1922h-17.092v32.437h28.026v-21.778Z" transform="translate(-64.82 -0.5)" fill="#fff" stroke="#dedede" stroke-width="1"/>
  </g>
</svg>
