<svg xmlns="http://www.w3.org/2000/svg" width="13.281" height="10.963" viewBox="0 0 13.281 10.963">
  <g id="read-book-icon" transform="translate(0 0.002)">
    <path id="Path_1311" data-name="Path 1311" d="M11.2,2.1a.438.438,0,0,1,0-.055.316.316,0,0,1,0-.055V.792a5.576,5.576,0,0,0-2.471.3A3.4,3.4,0,0,0,7.01,2.436V9.282A8.715,8.715,0,0,1,8.91,8.3a5.465,5.465,0,0,1,2.29-.328Zm.729-.419h.988a.364.364,0,0,1,.364.364v8.393a.364.364,0,0,1-.364.364.354.354,0,0,1-.118-.019A11.311,11.311,0,0,0,9.773,10.3a7.021,7.021,0,0,0-2.927.6.367.367,0,0,1-.207.061.372.372,0,0,1-.207-.061A7,7,0,0,0,3.5,10.3a11.318,11.318,0,0,0-3.025.491.354.354,0,0,1-.118.019A.362.362,0,0,1,0,10.442V2.048a.364.364,0,0,1,.364-.364H1.4L1.409.467A.364.364,0,0,1,1.7.113h0A5.778,5.778,0,0,1,4.844.354,4.039,4.039,0,0,1,6.658,1.678,4.241,4.241,0,0,1,8.472.411a6.389,6.389,0,0,1,3.144-.3.364.364,0,0,1,.311.36h0V1.684ZM6.281,9.212V2.426a3.214,3.214,0,0,0-1.7-1.391A5.029,5.029,0,0,0,2.134.774l-.041,7.22a7.045,7.045,0,0,1,2.447.331,6.235,6.235,0,0,1,1.741.886Z" fill="#fb812f"/>
  </g>
</svg>
