<svg xmlns="http://www.w3.org/2000/svg" width="20" height="20" viewBox="0 0 20 20">
  <path id="twitter-round-color-icon" d="M10,0A10,10,0,1,1,0,10,10,10,0,0,1,10,0Zm5.43,6.632a4.384,4.384,0,0,1-1.278.35,2.241,2.241,0,0,0,.98-1.232,4.485,4.485,0,0,1-1.414.541A2.229,2.229,0,0,0,9.864,7.815a2.254,2.254,0,0,0,.057.507A6.325,6.325,0,0,1,5.33,5.994a2.234,2.234,0,0,0-.3,1.12h0a2.222,2.222,0,0,0,.99,1.853,2.239,2.239,0,0,1-1.01-.278v.028A2.227,2.227,0,0,0,6.8,10.9a2.241,2.241,0,0,1-.587.079,2.333,2.333,0,0,1-.42-.04,2.234,2.234,0,0,0,2.08,1.547,4.48,4.48,0,0,1-3.3.922,6.336,6.336,0,0,0,9.754-5.337c0-.1,0-.193-.006-.288a4.465,4.465,0,0,0,1.111-1.151h0Z" fill="#d1d1d1" fill-rule="evenodd"/>
</svg>
