<svg width="0" height="0" class="hidden">
    <symbol fill="none" xmlns="http://www.w3.org/2000/svg" viewBox="0 0 156 47" id="logo">
        <g clip-path="url(#clip0_814_342)">
            <path d="M2.57207 24.7159L0 23.5055L2.57207 22.2896C2.57207 22.6875 2.5331 23.0965 2.5331 23.5055C2.5331 23.9145 2.5331 24.318 2.57207 24.7159ZM24.8968 44.4521L23.672 47L22.4527 44.4521C22.8536 44.4521 23.2656 44.4908 23.672 44.4908C24.0784 44.4908 24.4903 44.4908 24.8968 44.4521ZM44.7719 24.7159C44.7997 24.318 44.8108 23.909 44.8108 23.5055C44.8108 23.1021 44.8108 22.6875 44.7719 22.2896L47.3439 23.5055L44.7719 24.7159ZM23.672 2.51469C24.0839 2.51469 24.4903 2.5147 24.8968 2.55338L23.672 0L22.4527 2.55338C22.8536 2.55338 23.2656 2.51469 23.672 2.51469ZM42.9124 26.595L41.2422 26.9708L42.6507 27.9546C42.1691 29.9728 41.3626 31.9006 40.2624 33.6638L38.5922 33.3764L39.5108 34.8134C38.286 36.4935 36.7995 37.9692 35.1071 39.1851L33.6151 38.251L33.9101 39.9367C32.1345 41.0285 30.1923 41.8274 28.1592 42.3022L27.1626 40.9094L26.7841 42.5675C24.7228 42.899 22.6212 42.899 20.5599 42.5675L20.1813 40.9094L19.1848 42.3022C17.1516 41.8274 15.2094 41.0285 13.4338 39.9367L13.7288 38.251L12.2758 39.163C10.5846 37.9457 9.09833 36.4701 7.8721 34.7913L8.79069 33.3543L7.12051 33.6417C6.01802 31.8797 5.21139 29.9515 4.73217 27.9325L6.14068 26.9487L4.4705 26.5729C4.1364 24.5247 4.1364 22.4366 4.4705 20.3884L6.14068 20.0126L4.73217 19.0288C5.21241 17.0084 6.01896 15.0786 7.12051 13.3141L8.79069 13.607L7.8721 12.17C9.09833 10.4912 10.5846 9.01565 12.2758 7.79832L13.7288 8.70473L13.4338 7.04668C15.2094 5.95492 17.1516 5.15607 19.1848 4.68121L20.1813 6.07949L20.5599 4.42145C22.6212 4.08989 24.7228 4.08989 26.7841 4.42145L27.1626 6.07949L28.1592 4.68121C30.1923 5.15607 32.1345 5.95492 33.9101 7.04668L33.6151 8.70473L35.0681 7.79832C36.7605 9.01422 38.247 10.4899 39.4718 12.17L38.5532 13.607L40.2234 13.3141C41.3227 15.0797 42.1291 17.0092 42.6118 19.0288L41.2255 20.0126L42.8957 20.3884C43.2298 22.4366 43.2298 24.5247 42.8957 26.5729L42.9124 26.595Z" fill="#002F67"></path>
            <path d="M14.4751 42.391L14.6198 45.2152L16.7354 43.3195C15.9646 43.0534 15.2099 42.7434 14.4751 42.391ZM7.89457 37.4169L6.93702 40.0918L9.63713 39.1412C9.02206 38.6015 8.44016 38.0257 7.89457 37.4169ZM3.71357 30.3702L1.80957 32.4704L4.64887 32.6141C4.29619 31.8836 3.98396 31.1345 3.71357 30.3702ZM42.6843 32.6141L45.5237 32.4704L43.6197 30.3702C43.3493 31.1345 43.037 31.8836 42.6843 32.6141ZM37.7017 39.1412L40.3906 40.0918L39.4386 37.4169C38.8921 38.023 38.3122 38.5987 37.7017 39.1412ZM30.6201 43.3195L32.7357 45.2152L32.886 42.391C32.1489 42.7425 31.3924 43.0525 30.6201 43.3195ZM32.886 4.63183L32.7357 1.80762L30.6201 3.70331C31.3933 3.96788 32.1499 4.27795 32.886 4.63183ZM39.4609 9.57831L40.4129 6.90334L37.7184 7.85395C38.3303 8.3951 38.9102 8.97084 39.4553 9.57831H39.4609ZM43.6419 16.625L45.5459 14.5248L42.7066 14.3811C43.0593 15.1116 43.3715 15.8607 43.6419 16.625ZM16.7354 3.70331L14.6198 1.80762L14.4751 4.63183C15.2088 4.27705 15.9636 3.96696 16.7354 3.70331ZM4.65444 14.3811L1.80957 14.5248L3.71357 16.625C3.98345 15.8597 4.29759 15.1105 4.65444 14.3811ZM7.89457 9.57831L6.93702 6.90334L9.63156 7.85395C9.01515 8.3922 8.43317 8.9681 7.88901 9.57831H7.89457ZM23.6777 26.4959C24.2715 26.4959 24.8519 26.321 25.3454 25.9935C25.839 25.6659 26.2237 25.2003 26.4506 24.6557C26.6776 24.111 26.7367 23.5117 26.6204 22.9337C26.5042 22.3557 26.2178 21.8249 25.7976 21.4085C25.3774 20.9921 24.8422 20.7089 24.2597 20.5945C23.6773 20.4802 23.0738 20.54 22.5255 20.7663C21.9773 20.9926 21.5091 21.3753 21.18 21.8659C20.8509 22.3565 20.6759 22.933 20.677 23.5225C20.6785 24.3116 20.9953 25.0679 21.5579 25.6253C22.1205 26.1828 22.8829 26.4959 23.6777 26.4959ZM28.9666 26.7612C28.8831 26.8828 28.8052 27.0099 28.7161 27.1315L32.1845 30.8068C31.8264 31.2203 31.4375 31.6064 31.021 31.9619L27.3132 28.5187C27.1907 28.6071 27.0682 28.69 26.9402 28.7674L28.7272 33.4873C28.236 33.7322 27.7282 33.9427 27.2074 34.1174L25.1085 29.5246C24.6397 29.6356 24.1597 29.693 23.6777 29.6959C23.1958 29.6924 22.7159 29.6349 22.247 29.5246L20.1481 34.1174C19.6277 33.9417 19.1199 33.7312 18.6282 33.4873L20.4153 28.7674C20.2873 28.69 20.1648 28.6071 20.0423 28.5187L16.3401 31.9619C15.9218 31.6065 15.531 31.2204 15.171 30.8068L18.6394 27.1315L18.3944 26.7612L13.64 28.5353C13.3886 28.0479 13.1764 27.5415 13.0053 27.0209L17.6317 24.9429C17.4016 24.0078 17.4016 23.0316 17.6317 22.0965L12.9998 20.0129C13.1708 19.4924 13.3831 18.986 13.6344 18.4986L18.3889 20.2782C18.4668 20.1511 18.5503 20.024 18.6338 19.9079L15.1654 16.2271C15.5254 15.8135 15.9162 15.4274 16.3345 15.072L20.0368 18.5152C20.1592 18.4267 20.2817 18.3438 20.4098 18.2665L18.6227 13.5466C19.1133 13.3003 19.6212 13.0898 20.1425 12.9165L22.2414 17.5093L22.6812 17.4209L22.8482 12.3859C23.121 12.3859 23.405 12.3528 23.6722 12.3528C23.9394 12.3528 24.2289 12.3528 24.4961 12.3859L24.6631 17.4209L25.103 17.5093L27.2018 12.9165C27.7235 13.0888 28.2315 13.2994 28.7217 13.5466L26.9346 18.2665C27.0626 18.3438 27.1851 18.4267 27.3076 18.5152L31.0098 15.0388C31.4295 15.3928 31.8204 15.779 32.1789 16.1939L28.7105 19.8748C28.7941 19.9908 28.8776 20.118 28.9611 20.2451L33.7155 18.4654C33.9626 18.9541 34.1729 19.4602 34.3446 19.9798L29.7238 22.0579C29.9465 22.9937 29.9465 23.9683 29.7238 24.9042L34.3446 26.9822C34.1729 27.5018 33.9626 28.008 33.7155 28.4966L28.9499 26.7446L28.9666 26.7612ZM23.6777 37.8922C26.5406 37.8922 29.3392 37.0494 31.7195 35.4704C34.0999 33.8915 35.9552 31.6472 37.0508 29.0215C38.1463 26.3958 38.433 23.5065 37.8745 20.7191C37.316 17.9316 35.9374 15.3712 33.913 13.3615C31.8887 11.3519 29.3095 9.98332 26.5017 9.42886C23.6938 8.8744 20.7834 9.15897 18.1385 10.2466C15.4935 11.3342 13.2329 13.176 11.6423 15.5391C10.0518 17.9022 9.20288 20.6804 9.20288 23.5225C9.20288 27.3335 10.7279 30.9885 13.4425 33.6834C16.157 36.3782 19.8388 37.8922 23.6777 37.8922ZM23.6777 39.5944C20.4742 39.5955 17.3422 38.6534 14.6781 36.8872C12.014 35.121 9.93734 32.6101 8.71088 29.6721C7.48442 26.7341 7.16323 23.501 7.78795 20.3817C8.41266 17.2625 9.95522 14.3972 12.2205 12.1484C14.4858 9.89962 17.372 8.36827 20.514 7.7481C23.6561 7.12792 26.9129 7.44676 29.8724 8.66432C32.8319 9.88187 35.3611 11.9434 37.1403 14.5882C38.9194 17.233 39.8684 20.3422 39.8673 23.5225C39.8629 27.7837 38.1558 31.8691 35.1206 34.8822C32.0854 37.8953 27.9701 39.59 23.6777 39.5944Z" fill="#FABB43"></path>
            <path d="M25.0188 23.506C25.0188 23.7705 24.9398 24.0291 24.7918 24.2491C24.6437 24.469 24.4333 24.6404 24.1871 24.7417C23.941 24.8429 23.6701 24.8694 23.4087 24.8178C23.1474 24.7662 22.9073 24.6388 22.7189 24.4517C22.5305 24.2647 22.4022 24.0264 22.3502 23.7669C22.2982 23.5075 22.3249 23.2386 22.4268 22.9942C22.5288 22.7498 22.7015 22.5409 22.9231 22.3939C23.1446 22.2469 23.4051 22.1685 23.6716 22.1685C24.0289 22.1685 24.3716 22.3094 24.6242 22.5602C24.8769 22.8111 25.0188 23.1513 25.0188 23.506ZM23.6716 28.1154C22.7519 28.1154 21.8529 27.8446 21.0883 27.3372C20.3237 26.8299 19.7279 26.1088 19.3762 25.2652C19.0245 24.4216 18.9328 23.4935 19.1126 22.5981C19.2925 21.7028 19.7358 20.8805 20.3864 20.2353C21.0371 19.5901 21.866 19.151 22.7681 18.9736C23.6702 18.7961 24.605 18.8883 25.4544 19.2385C26.3037 19.5886 27.0294 20.1809 27.5395 20.9406C28.0496 21.7002 28.3213 22.593 28.3202 23.506C28.3173 24.7285 27.8264 25.9001 26.9551 26.764C26.0837 27.628 24.903 28.1139 23.6716 28.1154ZM24.6347 36.2619L24.8574 29.6297C26.0986 29.3948 27.24 28.7949 28.1335 27.9079C29.027 27.0209 29.6313 25.8878 29.8679 24.6556L36.5486 24.4345C36.3128 27.4871 34.9841 30.3551 32.8029 32.5195C30.6217 34.6838 27.732 36.0016 24.657 36.2342L24.6347 36.2619ZM10.8168 24.4621L17.4975 24.6832C17.7341 25.9154 18.3384 27.0486 19.2318 27.9356C20.1253 28.8225 21.2668 29.4224 22.508 29.6573L22.7307 36.2895C19.6556 36.0569 16.766 34.7391 14.5848 32.5748C12.4036 30.4104 11.0748 27.5424 10.839 24.4898L10.8168 24.4621ZM23.6716 10.7059C26.9223 10.7091 30.0521 11.9301 32.4353 14.1249C34.8185 16.3197 36.2795 19.3265 36.5263 22.5443L29.8456 22.3288C29.5714 20.9011 28.8042 19.6131 27.6762 18.6866C26.5482 17.7602 25.13 17.2533 23.666 17.2533C22.202 17.2533 20.7838 17.7602 19.6558 18.6866C18.5278 19.6131 17.7606 20.9011 17.4863 22.3288L10.8056 22.5443C11.0511 19.327 12.511 16.3202 14.8933 14.1253C17.2756 11.9304 20.4047 10.7092 23.6549 10.7059H23.6716ZM23.6716 9.04785C20.7957 9.04785 17.9845 9.89436 15.5932 11.4804C13.202 13.0664 11.3381 15.3207 10.2373 17.9582C9.13655 20.5957 8.84825 23.498 9.4089 26.2982C9.96954 29.0983 11.354 31.6706 13.3871 33.6897C15.4202 35.7089 18.0108 37.0842 20.8312 37.6419C23.6516 38.1995 26.5753 37.9144 29.2326 36.8226C31.8898 35.7308 34.1613 33.8814 35.7598 31.5081C37.3583 29.1349 38.2121 26.3444 38.2132 23.4894C38.2088 19.6616 36.6755 15.9917 33.9495 13.2845C31.2236 10.5773 27.5274 9.0537 23.6716 9.04785Z" fill="white"></path>
            <path d="M89.2539 28.2092H94.1531V25.0312H89.2539V28.2092Z" fill="#FABB43"></path>
            <path d="M102.109 25.0309L104.336 17.9622L106.563 25.0309H102.109ZM106.669 13.9331H101.965L94.6827 33.0559H99.593L101.113 28.2089H107.537L109.052 33.0559H113.951L106.669 13.9331ZM148.479 30.2648C147.992 30.2978 147.504 30.2094 147.059 30.0077C146.615 29.806 146.228 29.4973 145.935 29.1097C145.573 28.5902 145.211 27.8994 145.211 25.5173C145.211 23.1352 145.573 22.4389 145.935 21.9194C146.253 21.5581 146.644 21.2685 147.084 21.0701C147.524 20.8717 148.002 20.7691 148.485 20.7691C148.968 20.7691 149.445 20.8717 149.885 21.0701C150.325 21.2685 150.717 21.5581 151.034 21.9194C151.391 22.4389 151.747 23.1352 151.747 25.5173C151.747 27.8994 151.391 28.5902 151.034 29.1097C150.738 29.4975 150.35 29.806 149.904 30.0077C149.458 30.2093 148.968 30.2977 148.479 30.2648ZM156 25.5173C156 23.605 155.694 21.2782 153.902 19.5815C152.349 18.3916 150.443 17.7462 148.482 17.7462C146.521 17.7462 144.615 18.3916 143.062 19.5815C141.269 21.2782 140.963 23.605 140.963 25.5173C140.963 27.4351 141.269 29.7619 143.062 31.4586C144.615 32.6485 146.521 33.2939 148.482 33.2939C150.443 33.2939 152.349 32.6485 153.902 31.4586C155.694 29.7619 156 27.4351 156 25.5173ZM139.961 20.9798H136.398V33.0338H132.256V20.9687H128.699V18.0119H140.852L139.939 20.9687L139.961 20.9798ZM121.639 30.099C121.956 30.1281 122.276 30.0893 122.576 29.9854C122.877 29.8815 123.152 29.7148 123.382 29.4966C123.655 29.1665 123.792 28.7459 123.766 28.3194C123.794 28.0564 123.746 27.791 123.629 27.5535C123.512 27.316 123.33 27.116 123.104 26.9764C122.651 26.7494 122.145 26.6463 121.639 26.6779H119.234V30.099H121.639ZM121.45 23.804C122.059 23.859 122.67 23.7133 123.187 23.3895C123.312 23.259 123.409 23.1043 123.471 22.9351C123.534 22.7658 123.56 22.5856 123.549 22.4057C123.561 22.2052 123.528 22.0045 123.45 21.8187C123.373 21.633 123.255 21.4671 123.104 21.3335C122.663 21.0501 122.141 20.9163 121.617 20.9522H119.234V23.804H121.45ZM122.692 18.0229C124.03 17.9418 125.347 18.3842 126.36 19.2554C126.7 19.5874 126.968 19.9845 127.147 20.4226C127.327 20.8606 127.416 21.3303 127.407 21.8033C127.433 22.5724 127.189 23.3266 126.717 23.9366C126.341 24.4414 125.824 24.8257 125.23 25.042C125.829 25.2435 126.382 25.561 126.856 25.976C127.239 26.3318 127.541 26.7651 127.74 27.2466C127.94 27.7282 128.033 28.2467 128.014 28.7671C128.058 29.4696 127.9 30.1701 127.558 30.7867C127.215 31.4032 126.704 31.9104 126.082 32.249C124.874 32.8073 123.549 33.0708 122.218 33.0172H115.243V18.0119L122.692 18.0229ZM92.4892 18.0229L91.7766 21.0351H86.1815V33.0338H82.0617V18.0119L92.4892 18.0229ZM69.3071 29.9001C65.1261 29.9001 63.6174 27.109 63.6063 23.5111C63.5951 19.9131 65.1261 17.1276 69.3071 17.1276C73.4881 17.1276 75.0024 19.891 75.0136 23.5111C75.0247 27.1311 73.4937 29.9001 69.3071 29.9001ZM79.6121 23.4669C79.6121 16.9563 76.127 13.5518 69.296 13.5518C63.211 13.5518 59.8038 16.271 59.1191 21.4717H56.8086V13.9828H52.6221V33.0227H56.8086V24.7325H59.0355C59.4587 30.4804 62.8992 33.4759 69.3016 33.4759C76.1326 33.4759 79.5954 30.0659 79.6177 23.5608C79.6177 23.5608 79.6177 23.5608 79.6177 23.5221C79.6177 23.4834 79.6177 23.5221 79.6177 23.489L79.6121 23.4669Z" fill="#002F67"></path>
        </g>
    </symbol>
    <symbol xmlns="http://www.w3.org/2000/svg" viewBox="0 0 19 23" id="compare">
        <g clip-path="url(#clip0_814_360)">
            <path d="M17.8757 23.0002C17.5761 23.0002 17.2887 22.88 17.0769 22.666C16.8651 22.452 16.7461 22.1619 16.7461 21.8593V4.84888C16.7461 4.5463 16.8651 4.25613 17.0769 4.04218C17.2887 3.82822 17.5761 3.70801 17.8757 3.70801C18.1753 3.70801 18.4625 3.82822 18.6744 4.04218C18.8862 4.25613 19.0053 4.5463 19.0053 4.84888V21.8707C19.0023 22.1713 18.8819 22.4585 18.6704 22.67C18.4589 22.8815 18.1733 23.0002 17.8757 23.0002Z" ></path>
            <path d="M9.50558 23C9.20599 23 8.91862 22.8798 8.70678 22.6658C8.49494 22.4519 8.37598 22.1617 8.37598 21.8591V1.14087C8.37598 0.838295 8.49494 0.548126 8.70678 0.33417C8.91862 0.120215 9.20599 0 9.50558 0C9.80518 0 10.0924 0.120215 10.3043 0.33417C10.5161 0.548126 10.6352 0.838295 10.6352 1.14087V21.8591C10.6352 22.1617 10.5161 22.4519 10.3043 22.6658C10.0924 22.8798 9.80518 23 9.50558 23Z" ></path>
            <path d="M1.14621 22.9999C0.846618 22.9999 0.559246 22.8797 0.347403 22.6657C0.135561 22.4518 0.0166016 22.1616 0.0166016 21.859V12.6008C0.0166016 12.2983 0.135561 12.0081 0.347403 11.7941C0.559246 11.5801 0.846618 11.46 1.14621 11.46C1.4458 11.46 1.73317 11.5801 1.94501 11.7941C2.15686 12.0081 2.27582 12.2983 2.27582 12.6008V21.859C2.27582 22.1616 2.15686 22.4518 1.94501 22.6657C1.73317 22.8797 1.4458 22.9999 1.14621 22.9999Z" ></path>
        </g>
    </symbol>
    <symbol xmlns="http://www.w3.org/2000/svg" viewBox="0 0 20 23" id="favorites">
        <g clip-path="url(#clip0_814_356)">
            <path d="M10.0062 9.34573C8.91943 9.34709 7.84081 9.15794 6.81941 8.78687C6.67231 8.73203 6.55287 8.62125 6.48716 8.47868C6.42144 8.33611 6.41488 8.17335 6.46873 8.02589C6.52239 7.87771 6.63258 7.7569 6.77528 7.69001C6.91798 7.62312 7.08137 7.6156 7.2296 7.66915C9.02074 8.32322 10.9855 8.32322 12.7766 7.66915L13.1868 8.78687C12.1673 9.15749 11.0909 9.34664 10.0062 9.34573Z"></path>
            <path d="M2.35426 22.8593C1.95058 22.8641 1.55349 22.7571 1.20685 22.5502C0.802725 22.2748 0.479385 21.8965 0.270351 21.4544C0.0613168 21.0123 -0.0258322 20.5224 0.0177918 20.0353V4.77968C0.0255879 3.52065 0.529212 2.31543 1.4195 1.42514C2.30978 0.534857 3.51501 0.0312336 4.77403 0.0234375H15.2259C16.4874 0.0234375 17.6971 0.524537 18.589 1.41651C19.481 2.30847 19.9822 3.51825 19.9822 4.77968V20.0353C20.0258 20.5224 19.9385 21.0123 19.7295 21.4544C19.5204 21.8965 19.1972 22.2748 18.7931 22.5502C18.3567 22.7732 17.8685 22.8754 17.3792 22.8461C16.89 22.8169 16.4173 22.6572 16.0106 22.3837L10.7253 19.4467C10.4962 19.3442 10.2479 19.2913 9.99693 19.2913C9.74593 19.2913 9.49784 19.3442 9.26872 19.4467L3.98326 22.3837C3.48949 22.6781 2.92885 22.8418 2.35426 22.8593ZM10.0059 18.1031C10.4586 18.0989 10.9054 18.205 11.3079 18.4123L16.5932 21.3492C16.8214 21.5175 17.0897 21.623 17.3714 21.6554C17.653 21.6877 17.9382 21.6457 18.1986 21.5335C18.4168 21.3562 18.586 21.126 18.6901 20.8648C18.7941 20.6036 18.8296 20.3201 18.7931 20.0413V4.77968C18.7931 3.8336 18.4173 2.92629 17.7483 2.25732C17.0793 1.58834 16.172 1.2125 15.2259 1.2125H4.77403C3.82796 1.2125 2.92061 1.58834 2.25164 2.25732C1.58266 2.92629 1.20685 3.8336 1.20685 4.77968V20.0353C1.167 20.3161 1.20088 20.6024 1.30512 20.8661C1.40935 21.1298 1.58035 21.3619 1.80138 21.5395C2.06071 21.6517 2.34498 21.6938 2.62568 21.6614C2.90639 21.6291 3.17363 21.5235 3.40064 21.3552L8.68609 18.4182C9.09294 18.2043 9.54627 18.094 10.0059 18.0972V18.1031Z"></path>
            <path d="M2.35426 22.8593C1.95058 22.8641 1.55349 22.7571 1.20685 22.5502C0.802725 22.2748 0.479385 21.8965 0.270351 21.4544C0.0613168 21.0123 -0.0258322 20.5224 0.0177918 20.0353V4.77968C0.0255879 3.52065 0.529212 2.31543 1.4195 1.42514C2.30978 0.534857 3.51501 0.0312336 4.77403 0.0234375H15.2259C16.4874 0.0234375 17.6971 0.524537 18.589 1.41651C19.481 2.30847 19.9822 3.51825 19.9822 4.77968V20.0353C20.0258 20.5224 19.9385 21.0123 19.7295 21.4544C19.5204 21.8965 19.1972 22.2748 18.7931 22.5502C18.3567 22.7732 17.8685 22.8754 17.3792 22.8461C16.89 22.8169 16.4173 22.6572 16.0106 22.3837L10.7253 19.4467C10.4962 19.3442 10.2479 19.2913 9.99693 19.2913C9.74593 19.2913 9.49784 19.3442 9.26872 19.4467L3.98326 22.3837C3.48949 22.6781 2.92885 22.8418 2.35426 22.8593ZM10.0059 18.1031C10.4586 18.0989 10.9054 18.205 11.3079 18.4123L16.5932 21.3492C16.8214 21.5175 17.0897 21.623 17.3714 21.6554C17.653 21.6877 17.9382 21.6457 18.1986 21.5335C18.4168 21.3562 18.586 21.126 18.6901 20.8648C18.7941 20.6036 18.8296 20.3201 18.7931 20.0413V4.77968C18.7931 3.8336 18.4173 2.92629 17.7483 2.25732C17.0793 1.58834 16.172 1.2125 15.2259 1.2125H4.77403C3.82796 1.2125 2.92061 1.58834 2.25164 2.25732C1.58266 2.92629 1.20685 3.8336 1.20685 4.77968V20.0353C1.167 20.3161 1.20088 20.6024 1.30512 20.8661C1.40935 21.1298 1.58035 21.3619 1.80138 21.5395C2.06071 21.6517 2.34498 21.6938 2.62568 21.6614C2.90639 21.6291 3.17363 21.5235 3.40064 21.3552L8.68609 18.4182C9.09294 18.2043 9.54627 18.094 10.0059 18.0972V18.1031Z" ></path>
        </g>
    </symbol>
    <symbol xmlns="http://www.w3.org/2000/svg" viewBox="0 0 7 4" id="header-arrow">
        <g clip-path="url(#clip0_814_368)">
            <path d="M3.10903 3.57389C2.98639 3.57338 2.86886 3.52504 2.78179 3.43929L0.135835 0.788859C0.059249 0.700063 0.0192417 0.585854 0.0237862 0.469033C0.0283307 0.352212 0.0770887 0.241392 0.160345 0.158726C0.243602 0.0760594 0.355212 0.0276186 0.472867 0.0231063C0.590522 0.018594 0.705546 0.0583461 0.794976 0.13439L3.1324 2.43202L5.44646 0.13439C5.48991 0.0908836 5.54163 0.0563325 5.59859 0.0327671C5.65556 0.00920173 5.71667 -0.00292969 5.77838 -0.00292969C5.84009 -0.00292969 5.9012 0.00920173 5.95817 0.0327671C6.01513 0.0563325 6.06684 0.0908836 6.1103 0.13439C6.19737 0.221358 6.24624 0.338983 6.24624 0.46161C6.24624 0.584238 6.19737 0.701891 6.1103 0.788859L3.46432 3.41606C3.42 3.46616 3.36531 3.5062 3.304 3.53343C3.24269 3.56067 3.17619 3.57447 3.10903 3.57389Z"></path>
        </g>
    </symbol>
    <symbol xmlns="http://www.w3.org/2000/svg" viewBox="0 0 18 21" id="point">
        <g clip-path="url(#clip0_814_365)">
            <path d="M9.00075 12.4573C8.04797 12.4573 7.13414 12.0735 6.46042 11.3903C5.7867 10.7072 5.4082 9.78055 5.4082 8.81439C5.4082 7.84772 5.78659 6.92059 6.46016 6.23654C7.13372 5.5525 8.04748 5.16746 9.00075 5.16602C9.95452 5.16746 10.8688 5.55232 11.5432 6.23621C12.2176 6.9201 12.5971 7.84722 12.5986 8.81439C12.5971 9.78105 12.2175 10.7076 11.5429 11.3907C10.8684 12.0737 9.95403 12.4573 9.00075 12.4573ZM9.00075 6.25834C8.33317 6.25979 7.69332 6.52972 7.22177 7.00892C6.75022 7.48811 6.4854 8.13743 6.4854 8.81439C6.48683 9.4904 6.75235 10.1383 7.22374 10.6164C7.69514 11.0944 8.3341 11.3636 9.00075 11.365C9.66834 11.365 10.3086 11.0964 10.7812 10.6183C11.2537 10.1401 11.5199 9.49135 11.5214 8.81439C11.5199 8.13692 11.2538 7.48762 10.7814 7.00859C10.309 6.52955 9.66883 6.25979 9.00075 6.25834Z" ></path>
            <path d="M9.0066 21C7.54533 21.0005 6.14113 20.4247 5.09097 19.3943C2.23639 16.5979 -0.925186 12.1576 0.243575 6.88712C1.32077 2.13003 5.40335 0 8.98504 0C12.5721 0 16.6655 2.1355 17.7319 6.89805C18.906 12.1685 15.7445 16.6034 12.8845 19.3943C11.845 20.4174 10.4553 20.9929 9.0066 21ZM1.30999 7.12743C0.232793 11.9064 3.17889 16.0081 5.83957 18.5969C6.68742 19.4291 7.82123 19.8943 9.00121 19.8943C10.1812 19.8943 11.3149 19.4291 12.1627 18.5969C14.8234 16.0026 17.7642 11.9064 16.6978 7.12743C15.7068 2.67073 11.9366 1.08686 9.0066 1.08139C6.08201 1.08139 2.31179 2.66526 1.31538 7.1165L1.30999 7.12743Z" ></path>
        </g>
    </symbol>
    <symbol xmlns="http://www.w3.org/2000/svg" viewBox="0 0 285 167" id="down">
        <path d="M282.082 17.5108L267.808 3.23783C265.906 1.33183 263.715 0.381836 261.238 0.381836C258.767 0.381836 256.577 1.33183 254.675 3.23783L142.466 115.441L30.262 3.24084C28.359 1.33484 26.169 0.384834 23.695 0.384834C21.22 0.384834 19.03 1.33484 17.128 3.24084L2.856 17.5148C0.95 19.4168 0 21.6068 0 24.0818C0 26.5548 0.953 28.7448 2.856 30.6468L135.899 163.693C137.801 165.596 139.992 166.547 142.466 166.547C144.94 166.547 147.127 165.596 149.028 163.693L282.082 30.6468C283.984 28.7438 284.929 26.5538 284.929 24.0818C284.929 21.6068 283.984 19.4168 282.082 17.5108Z" ></path>
    </symbol>
    <symbol xmlns="http://www.w3.org/2000/svg" viewBox="0 0 9 18" id="arrow-rigth">
        <path d="M7.43464 8.99923L0.189686 16.7141C-0.0632277 17.0082 -0.0632277 17.4853 0.189686 17.7794C0.4426 18.0735 0.853175 18.0735 1.10609 17.7794L8.81567 9.57018C8.95081 9.41338 9.00809 9.2048 8.99908 9C9.00809 8.79442 8.95081 8.58662 8.81567 8.42979L1.10609 0.22058C0.853174 -0.0735237 0.442599 -0.0735237 0.189684 0.22058C-0.0632291 0.514661 -0.063229 0.991839 0.189684 1.28592L7.43464 8.99923Z"></path>
    </symbol>
    <symbol xmlns="http://www.w3.org/2000/svg" viewBox="0 0 23 19" id="filter-config">
        <g clip-path="url(#clip0_579_977)">
            <path d="M1.15413 3.09487H4.35626C4.46577 3.65013 4.76751 4.15057 5.20987 4.51041C5.65222 4.87025 6.20764 5.06713 6.78094 5.06731C7.35424 5.06713 7.90955 4.87025 8.3519 4.51041C8.79425 4.15057 9.09611 3.65013 9.20561 3.09487H21.8286C21.9506 3.09253 22.0671 3.04372 22.1533 2.9586C22.2396 2.87348 22.289 2.75865 22.2914 2.63829C22.2914 2.5172 22.2427 2.4011 22.1559 2.31548C22.0691 2.22986 21.9514 2.18172 21.8286 2.18172H9.20561C9.09801 1.62477 8.79703 1.12226 8.3545 0.760604C7.91196 0.398949 7.35555 0.200783 6.78094 0.200195C6.20633 0.200783 5.6498 0.398949 5.20727 0.760604C4.76473 1.12226 4.46387 1.62477 4.35626 2.18172H1.15413C1.03141 2.18172 0.913748 2.22986 0.82697 2.31548C0.740192 2.4011 0.691406 2.5172 0.691406 2.63829C0.691406 2.75939 0.740192 2.87554 0.82697 2.96116C0.913748 3.04679 1.03141 3.09487 1.15413 3.09487ZM5.2354 2.63829C5.2354 2.43803 5.27533 2.23977 5.353 2.05476C5.43067 1.86974 5.54455 1.70161 5.68807 1.56C5.83158 1.4184 6.00192 1.30608 6.18943 1.22944C6.37694 1.1528 6.57798 1.11335 6.78094 1.11335C7.19083 1.11335 7.58386 1.27402 7.8737 1.56C8.16353 1.84599 8.32637 2.23385 8.32637 2.63829C8.32637 2.83813 8.28632 3.03599 8.20854 3.22049C8.13076 3.405 8.01677 3.57253 7.87313 3.71341C7.7295 3.85429 7.55911 3.96577 7.37166 4.04141C7.1842 4.11704 6.98346 4.15536 6.78094 4.15416C6.57842 4.15536 6.37756 4.11704 6.19011 4.04141C6.00265 3.96577 5.83227 3.85429 5.68863 3.71341C5.545 3.57253 5.43101 3.405 5.35322 3.22049C5.27544 3.03599 5.23539 2.83813 5.2354 2.63829Z" ></path>
            <path d="M21.8286 15.7052H9.20561C9.09636 15.149 8.79486 14.6475 8.35269 14.2862C7.91052 13.9248 7.35507 13.726 6.78094 13.7236C6.2068 13.726 5.65125 13.9248 5.20907 14.2862C4.7669 14.6475 4.46552 15.149 4.35626 15.7052H1.15413C1.03141 15.7052 0.913748 15.7533 0.82697 15.8389C0.740192 15.9245 0.691406 16.0406 0.691406 16.1617C0.691406 16.2828 0.740192 16.399 0.82697 16.4846C0.913748 16.5702 1.03141 16.6183 1.15413 16.6183H4.35626C4.46552 17.1745 4.7669 17.676 5.20907 18.0374C5.65125 18.3987 6.2068 18.5976 6.78094 18.5999C7.35507 18.5976 7.91052 18.3987 8.35269 18.0374C8.79486 17.676 9.09636 17.1745 9.20561 16.6183H21.8286C21.9514 16.6183 22.0691 16.5702 22.1559 16.4846C22.2427 16.399 22.2914 16.2828 22.2914 16.1617C22.289 16.0414 22.2396 15.9266 22.1533 15.8415C22.0671 15.7564 21.9506 15.7075 21.8286 15.7052ZM8.32637 16.1617C8.32637 16.5662 8.16353 16.9541 7.8737 17.2401C7.58386 17.5261 7.19083 17.6867 6.78094 17.6867C6.57798 17.6867 6.37694 17.6473 6.18943 17.5706C6.00192 17.494 5.83158 17.3817 5.68807 17.2401C5.54455 17.0985 5.43067 16.9303 5.353 16.7453C5.27533 16.5603 5.2354 16.362 5.2354 16.1617C5.2354 15.9615 5.27533 15.7632 5.353 15.5782C5.43067 15.3932 5.54455 15.225 5.68807 15.0834C5.83158 14.9418 6.00192 14.8295 6.18943 14.7529C6.37694 14.6762 6.57798 14.6368 6.78094 14.6368C7.19083 14.6368 7.58386 14.7975 7.8737 15.0834C8.16353 15.3694 8.32637 15.7573 8.32637 16.1617Z" ></path>
            <path d="M21.8286 9.18534H18.6174C18.5115 8.63003 18.2121 8.12877 17.7709 7.76852C17.3297 7.40826 16.7746 7.21169 16.202 7.2129C15.6282 7.21132 15.0719 7.4076 14.6292 7.76774C14.1865 8.12787 13.8851 8.62928 13.7773 9.18534H1.15413C1.03141 9.18534 0.913748 9.23342 0.82697 9.31904C0.740192 9.40467 0.691406 9.52082 0.691406 9.64191C0.691406 9.76301 0.740192 9.8791 0.82697 9.96473C0.913748 10.0504 1.03141 10.0985 1.15413 10.0985H13.7773C13.8832 10.6562 14.1837 11.1598 14.6266 11.5217C15.0695 11.8837 15.6269 12.0812 16.202 12.08C16.7759 12.0808 17.332 11.883 17.7734 11.5209C18.2147 11.1588 18.5134 10.6555 18.6174 10.0985H21.8286C21.9514 10.0985 22.0691 10.0504 22.1559 9.96473C22.2427 9.8791 22.2914 9.76301 22.2914 9.64191C22.289 9.52155 22.2396 9.40673 22.1533 9.32161C22.0671 9.23649 21.9506 9.18768 21.8286 9.18534ZM17.7382 9.64191C17.7395 9.84174 17.7006 10.0398 17.6239 10.2248C17.5473 10.4097 17.4343 10.5779 17.2915 10.7196C17.1488 10.8614 16.979 10.9739 16.792 11.0506C16.605 11.1273 16.4045 11.1669 16.202 11.1669C15.7921 11.1669 15.3989 11.0062 15.1091 10.7202C14.8192 10.4342 14.6564 10.0464 14.6564 9.64191C14.6564 9.44208 14.6965 9.24422 14.7742 9.05971C14.852 8.87521 14.966 8.70768 15.1096 8.5668C15.2533 8.42592 15.4238 8.31444 15.6112 8.2388C15.7987 8.16316 15.9994 8.12485 16.202 8.12605C16.6094 8.12605 17.0002 8.28576 17.2883 8.57003C17.5764 8.8543 17.7382 9.23989 17.7382 9.64191Z" ></path>
        </g>
    </symbol>
    <symbol xmlns="http://www.w3.org/2000/svg" viewBox="0 0 20 20" id="filter-grid">
        <path d="M1 3C1 1.89543 1.89543 1 3 1H6C7.10457 1 8 1.89543 8 3V6C8 7.10457 7.10457 8 6 8H3C1.89543 8 1 7.10457 1 6V3Z" fill="white"></path>
        <path fill-rule="evenodd" clip-rule="evenodd" d="M0 3C0 1.34315 1.34315 0 3 0H6C7.65685 0 9 1.34315 9 3V6C9 7.65685 7.65685 9 6 9H3C1.34315 9 0 7.65685 0 6V3ZM3 2C2.44772 2 2 2.44772 2 3V6C2 6.55228 2.44772 7 3 7H6C6.55228 7 7 6.55228 7 6V3C7 2.44772 6.55228 2 6 2H3Z" fill="#1C1C1C"></path>
        <path d="M1 14C1 12.8954 1.89543 12 3 12H6C7.10457 12 8 12.8954 8 14V17C8 18.1046 7.10457 19 6 19H3C1.89543 19 1 18.1046 1 17V14Z" fill="white"></path>
        <path fill-rule="evenodd" clip-rule="evenodd" d="M0 14C0 12.3431 1.34315 11 3 11H6C7.65685 11 9 12.3431 9 14V17C9 18.6569 7.65685 20 6 20H3C1.34315 20 0 18.6569 0 17V14ZM3 13C2.44772 13 2 13.4477 2 14V17C2 17.5523 2.44772 18 3 18H6C6.55228 18 7 17.5523 7 17V14C7 13.4477 6.55228 13 6 13H3Z" ></path>
        <path d="M12 3C12 1.89543 12.8954 1 14 1H17C18.1046 1 19 1.89543 19 3V6C19 7.10457 18.1046 8 17 8H14C12.8954 8 12 7.10457 12 6V3Z" fill="white"></path>
        <path fill-rule="evenodd" clip-rule="evenodd" d="M11 3C11 1.34315 12.3431 0 14 0H17C18.6569 0 20 1.34315 20 3V6C20 7.65685 18.6569 9 17 9H14C12.3431 9 11 7.65685 11 6V3ZM14 2C13.4477 2 13 2.44772 13 3V6C13 6.55228 13.4477 7 14 7H17C17.5523 7 18 6.55228 18 6V3C18 2.44772 17.5523 2 17 2H14Z" ></path>
        <path d="M12 14C12 12.8954 12.8954 12 14 12H17C18.1046 12 19 12.8954 19 14V17C19 18.1046 18.1046 19 17 19H14C12.8954 19 12 18.1046 12 17V14Z" fill="white"></path>
        <path fill-rule="evenodd" clip-rule="evenodd" d="M11 14C11 12.3431 12.3431 11 14 11H17C18.6569 11 20 12.3431 20 14V17C20 18.6569 18.6569 20 17 20H14C12.3431 20 11 18.6569 11 17V14ZM14 13C13.4477 13 13 13.4477 13 14V17C13 17.5523 13.4477 18 14 18H17C17.5523 18 18 17.5523 18 17V14C18 13.4477 17.5523 13 17 13H14Z" ></path>
    </symbol>
    <symbol xmlns="http://www.w3.org/2000/svg" viewBox="0 0 18 19" id="filter-line">
        <g clip-path="url(#clip0_687_4320)">
            <path d="M-4.37114e-08 9C-3.21184e-08 8.73478 0.0940819 8.48038 0.261524 8.29285C0.428968 8.10531 0.656055 8 0.892857 8L17.1071 8C17.3439 8 17.571 8.10531 17.7385 8.29285C17.9059 8.48038 18 8.73478 18 9C18 9.26522 17.9059 9.5195 17.7385 9.70703C17.571 9.89457 17.3439 10 17.1071 10L0.892857 10C0.656055 10 0.428968 9.89457 0.261524 9.70703C0.0940818 9.51949 -5.53044e-08 9.26522 -4.37114e-08 9Z" ></path>
            <path d="M-4.37114e-08 17C-3.21184e-08 16.7348 0.0940819 16.4804 0.261526 16.2928C0.428968 16.1053 0.656057 16 0.892857 16L17.1071 16C17.3439 16 17.571 16.1053 17.7385 16.2928C17.9059 16.4804 18 16.7348 18 17C18 17.2652 17.9059 17.5195 17.7385 17.707C17.571 17.8946 17.3439 18 17.1071 18L0.892857 18C0.656057 18 0.428968 17.8946 0.261526 17.707C0.0940818 17.5195 -5.53044e-08 17.2652 -4.37114e-08 17Z" ></path>
            <path d="M-4.37114e-08 1C-3.21184e-08 0.734783 0.0937557 0.480383 0.26062 0.292846C0.427484 0.10531 0.653788 -3.64825e-07 0.889769 -3.54509e-07L8.11023 -3.8893e-08C8.34621 -2.85779e-08 8.57254 0.10531 8.73941 0.292847C8.90627 0.480383 9 0.734784 9 1C9 1.26522 8.90627 1.51962 8.73941 1.70715C8.57254 1.89469 8.34621 2 8.11023 2L0.889769 2C0.653788 2 0.427483 1.89469 0.26062 1.70715C0.0937557 1.51962 -5.53044e-08 1.26522 -4.37114e-08 1Z" ></path>
        </g>
    </symbol>
    <symbol xmlns="http://www.w3.org/2000/svg" viewBox="0 0 10 21" id="arrow-orange">
        <path d="M8.26071 10.4991L0.210766 19.4997C-0.0702506 19.8429 -0.0702506 20.3995 0.210766 20.7427C0.491781 21.0858 0.947975 21.0858 1.22899 20.7427L9.79519 11.1652C9.94535 10.9823 10.009 10.7389 9.99898 10.5C10.009 10.2602 9.94535 10.0177 9.79519 9.83476L1.22899 0.257342C0.947974 -0.0857802 0.49178 -0.0857802 0.210764 0.257342C-0.0702521 0.600436 -0.070252 1.15715 0.210764 1.50024L8.26071 10.4991Z"></path>
    </symbol>
    <symbol fill="none" xmlns="http://www.w3.org/2000/svg" viewBox="0 0 78 76" id="credit">
        <g clip-path="url(#clip0_1001_225)">
            <path d="M70.8743 63.7852H66.572C66.029 63.7852 65.5889 64.2244 65.5889 64.7663V67.7638C65.5889 68.3057 66.029 68.745 66.572 68.745H70.8743C71.4172 68.745 71.8574 68.3057 71.8574 67.7638V64.7663C71.8574 64.2244 71.4172 63.7852 70.8743 63.7852Z" fill="#FCE0B2"></path>
            <path d="M70.8743 53.0371H66.572C66.029 53.0371 65.5889 53.4764 65.5889 54.0183V57.0158C65.5889 57.5577 66.029 57.997 66.572 57.997H70.8743C71.4172 57.997 71.8574 57.5577 71.8574 57.0158V54.0183C71.8574 53.4764 71.4172 53.0371 70.8743 53.0371Z" fill="#FCE0B2"></path>
            <path d="M75.0691 35.2676H49.8147C49.5181 35.2676 49.2336 35.3852 49.0239 35.5945C48.8141 35.8038 48.6963 36.0877 48.6963 36.3838V73.0831C48.6963 73.3791 48.8141 73.663 49.0239 73.8723C49.2336 74.0817 49.5181 74.1992 49.8147 74.1992H75.0691C75.3657 74.1992 75.6502 74.0817 75.8599 73.8723C76.0697 73.663 76.1875 73.3791 76.1875 73.0831V36.3838C76.1875 36.0877 76.0697 35.8038 75.8599 35.5945C75.6502 35.3852 75.3657 35.2676 75.0691 35.2676ZM61.4227 67.7541C61.4227 68.4927 61.1294 69.2011 60.607 69.7241C60.0845 70.2472 59.3757 70.5422 58.6357 70.5446H54.3334C53.9667 70.5446 53.6035 70.4724 53.2648 70.332C52.9261 70.1917 52.6184 69.986 52.3595 69.7268C52.1006 69.4675 51.8955 69.1598 51.756 68.8213C51.6165 68.4828 51.5452 68.1202 51.5464 67.7541V64.7656C51.5464 64.0279 51.8401 63.3205 52.3627 62.7988C52.8854 62.2772 53.5943 61.9842 54.3334 61.9842H58.6357C59.3749 61.9842 60.0837 62.2772 60.6064 62.7988C61.1291 63.3205 61.4227 64.0279 61.4227 64.7656V67.7541ZM61.4227 57.0063C61.4227 57.7448 61.1294 58.4532 60.607 58.9763C60.0845 59.4994 59.3757 59.7944 58.6357 59.7968H54.3334C53.9667 59.7968 53.6035 59.7245 53.2648 59.5842C52.9261 59.4438 52.6184 59.2382 52.3595 58.9789C52.1006 58.7197 51.8955 58.412 51.756 58.0735C51.6165 57.735 51.5452 57.3723 51.5464 57.0063V54.0178C51.5464 53.2801 51.8401 52.5726 52.3627 52.051C52.8854 51.5294 53.5943 51.2363 54.3334 51.2363H58.6357C59.3749 51.2363 60.0837 51.5294 60.6064 52.051C61.1291 52.5726 61.4227 53.2801 61.4227 54.0178V57.0063ZM73.6621 67.7541C73.6633 68.1202 73.592 68.4828 73.4525 68.8213C73.313 69.1598 73.1079 69.4675 72.849 69.7268C72.59 69.986 72.2824 70.1917 71.9437 70.332C71.605 70.4724 71.2418 70.5446 70.8751 70.5446H66.5728C65.8328 70.5422 65.1239 70.2472 64.6015 69.7241C64.0791 69.2011 63.7858 68.4927 63.7858 67.7541V64.7656C63.7858 64.0279 64.0794 63.3205 64.6021 62.7988C65.1247 62.2772 65.8336 61.9842 66.5728 61.9842H70.839C71.5781 61.9842 72.287 62.2772 72.8097 62.7988C73.3324 63.3205 73.626 64.0279 73.626 64.7656L73.6621 67.7541ZM73.6621 57.0063C73.6633 57.3723 73.592 57.735 73.4525 58.0735C73.313 58.412 73.1079 58.7197 72.849 58.9789C72.59 59.2382 72.2824 59.4438 71.9437 59.5842C71.605 59.7245 71.2418 59.7968 70.8751 59.7968H66.5728C65.8328 59.7944 65.1239 59.4994 64.6015 58.9763C64.0791 58.4532 63.7858 57.7448 63.7858 57.0063V54.0178C63.7858 53.2801 64.0794 52.5726 64.6021 52.051C65.1247 51.5294 65.8336 51.2363 66.5728 51.2363H70.839C71.5781 51.2363 72.287 51.5294 72.8097 52.051C73.3324 52.5726 73.626 53.2801 73.626 54.0178L73.6621 57.0063ZM73.7974 46.2045C73.7974 46.6127 73.6349 47.0042 73.3456 47.2929C73.0564 47.5815 72.6641 47.7437 72.255 47.7437H52.6378C52.2287 47.7437 51.8364 47.5815 51.5472 47.2929C51.2579 47.0042 51.0955 46.6127 51.0955 46.2045V39.3363C51.0978 38.9288 51.2611 38.5386 51.5498 38.2505C51.8385 37.9623 52.2295 37.7994 52.6378 37.797H72.255C72.6634 37.7994 73.0543 37.9623 73.343 38.2505C73.6317 38.5386 73.795 38.9288 73.7974 39.3363V46.2045Z" fill="#FCE0B2"></path>
            <path d="M58.635 63.7852H54.3327C53.7898 63.7852 53.3496 64.2244 53.3496 64.7663V67.7638C53.3496 68.3057 53.7898 68.745 54.3327 68.745H58.635C59.178 68.745 59.6181 68.3057 59.6181 67.7638V64.7663C59.6181 64.2244 59.178 63.7852 58.635 63.7852Z" fill="#FCE0B2"></path>
            <path d="M58.635 53.0371H54.3327C53.7898 53.0371 53.3496 53.4764 53.3496 54.0183V57.0158C53.3496 57.5577 53.7898 57.997 54.3327 57.997H58.635C59.178 57.997 59.6181 57.5577 59.6181 57.0158V54.0183C59.6181 53.4764 59.178 53.0371 58.635 53.0371Z" fill="#FCE0B2"></path>
            <path d="M71.9933 39.5977H52.9082V45.9437H71.9933V39.5977Z" fill="#FCE0B2"></path>
            <path d="M75.0687 33.4678H58.7886V14.3935C58.7904 13.9487 58.7036 13.508 58.5333 13.0969C58.363 12.6859 58.1125 12.3127 57.7965 11.9991L46.7657 0.990201C46.4498 0.674509 46.0743 0.424451 45.661 0.254493C45.2476 0.0845348 44.8046 -0.00194925 44.3575 3.33299e-05H3.89638C2.86373 0.00241075 1.87405 0.412867 1.14385 1.14162C0.413647 1.87037 0.00238214 2.85809 0 3.8887V68.3397C0.00238214 69.3703 0.413647 70.358 1.14385 71.0868C1.87405 71.8156 2.86373 72.226 3.89638 72.2284H46.901V73.0835C46.9034 73.8563 47.212 74.5967 47.7596 75.1432C48.3071 75.6896 49.049 75.9977 49.8233 76H75.0777C75.852 75.9977 76.5939 75.6896 77.1414 75.1432C77.689 74.5967 77.9976 73.8563 78 73.0835V36.3843C78 36.0005 77.9241 35.6205 77.7767 35.2661C77.6293 34.9116 77.4132 34.5897 77.1409 34.3188C76.8686 34.0478 76.5454 33.8332 76.1898 33.6872C75.8342 33.5411 75.4532 33.4666 75.0687 33.4678ZM76.1871 73.0745C76.1871 73.2211 76.1582 73.3663 76.102 73.5017C76.0458 73.6371 75.9634 73.7601 75.8595 73.8638C75.7557 73.9674 75.6324 74.0497 75.4967 74.1058C75.361 74.1618 75.2156 74.1907 75.0687 74.1907H49.8143C49.6674 74.1907 49.522 74.1618 49.3863 74.1058C49.2506 74.0497 49.1273 73.9674 49.0234 73.8638C48.9196 73.7601 48.8372 73.6371 48.781 73.5017C48.7248 73.3663 48.6959 73.2211 48.6959 73.0745V36.3843C48.6959 36.0882 48.8137 35.8043 49.0234 35.595C49.2332 35.3857 49.5177 35.2681 49.8143 35.2681H75.0687C75.3653 35.2681 75.6498 35.3857 75.8595 35.595C76.0693 35.8043 76.1871 36.0882 76.1871 36.3843V73.0745ZM55.713 12.4492H47.2347C46.9955 12.4492 46.7661 12.3543 46.597 12.1855C46.4278 12.0167 46.3328 11.7877 46.3328 11.549V3.08756L55.713 12.4492ZM3.89638 70.4191C3.34142 70.4191 2.80918 70.1991 2.41676 69.8074C2.02434 69.4158 1.80389 68.8846 1.80389 68.3307V3.8887C1.80389 3.33483 2.02434 2.80365 2.41676 2.41201C2.80918 2.02036 3.34142 1.80034 3.89638 1.80034H44.4838V11.522C44.4838 12.2382 44.7689 12.9251 45.2763 13.4315C45.7838 13.938 46.472 14.2225 47.1896 14.2225H56.9306C56.9306 14.2225 56.9306 14.3125 56.9306 14.3575V33.4318H49.8233C49.0483 33.4318 48.305 33.739 47.7569 34.286C47.2089 34.8329 46.901 35.5748 46.901 36.3483V70.3921L3.89638 70.4191Z" fill="#002F67"></path>
            <path d="M72.2543 37.7979H52.6371C52.2287 37.8002 51.8378 37.9631 51.5491 38.2513C51.2604 38.5395 51.0971 38.9296 51.0947 39.3371V46.2053C51.0947 46.6135 51.2572 47.005 51.5465 47.2937C51.8357 47.5824 52.228 47.7445 52.6371 47.7445H72.2543C72.6634 47.7445 73.0556 47.5824 73.3449 47.2937C73.6341 47.005 73.7966 46.6135 73.7966 46.2053V39.3371C73.7943 38.9296 73.631 38.5395 73.3423 38.2513C73.0535 37.9631 72.6626 37.8002 72.2543 37.7979ZM71.9927 45.8992H52.8986V39.5982H71.9927V45.8992Z" fill="#002F67"></path>
            <path d="M58.6352 51.2363H54.3329C53.5938 51.2363 52.8849 51.5294 52.3622 52.051C51.8395 52.5726 51.5459 53.2801 51.5459 54.0178V57.0063C51.5447 57.3723 51.6159 57.735 51.7555 58.0735C51.895 58.412 52.1001 58.7197 52.359 58.9789C52.6179 59.2382 52.9256 59.4439 53.2643 59.5842C53.603 59.7246 53.9662 59.7968 54.3329 59.7968H58.6352C59.3752 59.7944 60.084 59.4994 60.6064 58.9763C61.1288 58.4533 61.4222 57.7448 61.4222 57.0063V54.0178C61.4222 53.2801 61.1285 52.5726 60.6059 52.051C60.0832 51.5294 59.3743 51.2363 58.6352 51.2363ZM59.6183 57.0063C59.6195 57.1359 59.5949 57.2645 59.5461 57.3846C59.4972 57.5046 59.425 57.6139 59.3336 57.7059C59.2422 57.798 59.1334 57.8711 59.0135 57.9209C58.8936 57.9708 58.765 57.9965 58.6352 57.9965H54.3329C54.203 57.9965 54.0745 57.9708 53.9546 57.9209C53.8347 57.8711 53.7259 57.798 53.6345 57.7059C53.5431 57.6139 53.4709 57.5046 53.422 57.3846C53.3732 57.2645 53.3486 57.1359 53.3498 57.0063V54.0178C53.3498 53.7576 53.4534 53.508 53.6378 53.324C53.8221 53.14 54.0722 53.0366 54.3329 53.0366H58.6352C58.8959 53.0366 59.146 53.14 59.3304 53.324C59.5147 53.508 59.6183 53.7576 59.6183 54.0178V57.0063Z" fill="#002F67"></path>
            <path d="M70.8383 51.2363H66.536C65.7969 51.2363 65.088 51.5294 64.5653 52.051C64.0427 52.5726 63.749 53.2801 63.749 54.0178V57.0063C63.749 57.7448 64.0424 58.4533 64.5648 58.9763C65.0872 59.4994 65.796 59.7944 66.536 59.7968H70.8383C71.205 59.7968 71.5682 59.7246 71.9069 59.5842C72.2456 59.4439 72.5533 59.2382 72.8122 58.9789C73.0711 58.7197 73.2762 58.412 73.4157 58.0735C73.5553 57.735 73.6265 57.3723 73.6253 57.0063V54.0178C73.6253 53.2801 73.3317 52.5726 72.809 52.051C72.2863 51.5294 71.5775 51.2363 70.8383 51.2363ZM71.8214 57.0063C71.8226 57.1359 71.7981 57.2645 71.7492 57.3846C71.7003 57.5046 71.6281 57.6139 71.5367 57.7059C71.4453 57.798 71.3365 57.8711 71.2166 57.9209C71.0967 57.9708 70.9682 57.9965 70.8383 57.9965H66.536C66.4062 57.9965 66.2776 57.9708 66.1577 57.9209C66.0378 57.8711 65.9291 57.798 65.8377 57.7059C65.7462 57.6139 65.674 57.5046 65.6251 57.3846C65.5763 57.2645 65.5517 57.1359 65.5529 57.0063V54.0178C65.5529 53.7576 65.6565 53.508 65.8409 53.324C66.0252 53.14 66.2753 53.0366 66.536 53.0366H70.8383C71.099 53.0366 71.3491 53.14 71.5335 53.324C71.7178 53.508 71.8214 53.7576 71.8214 54.0178V57.0063Z" fill="#002F67"></path>
            <path d="M58.6352 61.9844H54.3329C53.5938 61.9844 52.8849 62.2774 52.3622 62.7991C51.8395 63.3207 51.5459 64.0282 51.5459 64.7658V67.7544C51.5447 68.1204 51.6159 68.483 51.7555 68.8216C51.895 69.1601 52.1001 69.4677 52.359 69.727C52.6179 69.9862 52.9256 70.1919 53.2643 70.3323C53.603 70.4726 53.9662 70.5448 54.3329 70.5448H58.6352C59.3752 70.5425 60.084 70.2474 60.6064 69.7243C61.1288 69.2013 61.4222 68.4929 61.4222 67.7544V64.7658C61.4222 64.0282 61.1285 63.3207 60.6059 62.7991C60.0832 62.2774 59.3743 61.9844 58.6352 61.9844ZM59.6183 67.7544C59.6195 67.884 59.5949 68.0125 59.5461 68.1326C59.4972 68.2527 59.425 68.3619 59.3336 68.454C59.2422 68.546 59.1334 68.6191 59.0135 68.669C58.8936 68.7189 58.765 68.7445 58.6352 68.7445H54.3329C54.203 68.7445 54.0745 68.7189 53.9546 68.669C53.8347 68.6191 53.7259 68.546 53.6345 68.454C53.5431 68.3619 53.4709 68.2527 53.422 68.1326C53.3732 68.0125 53.3486 67.884 53.3498 67.7544V64.7658C53.3498 64.5056 53.4534 64.2561 53.6378 64.0721C53.8221 63.888 54.0722 63.7847 54.3329 63.7847H58.6352C58.8959 63.7847 59.146 63.888 59.3304 64.0721C59.5147 64.2561 59.6183 64.5056 59.6183 64.7658V67.7544Z" fill="#002F67"></path>
            <path d="M70.8383 61.9844H66.536C65.7969 61.9844 65.088 62.2774 64.5653 62.7991C64.0427 63.3207 63.749 64.0282 63.749 64.7658V67.7544C63.749 68.4929 64.0424 69.2013 64.5648 69.7243C65.0872 70.2474 65.796 70.5425 66.536 70.5448H70.8383C71.205 70.5448 71.5682 70.4726 71.9069 70.3323C72.2456 70.1919 72.5533 69.9862 72.8122 69.727C73.0711 69.4677 73.2762 69.1601 73.4157 68.8216C73.5553 68.483 73.6265 68.1204 73.6253 67.7544V64.7658C73.6253 64.0282 73.3317 63.3207 72.809 62.7991C72.2863 62.2774 71.5775 61.9844 70.8383 61.9844ZM71.8214 67.7544C71.8226 67.884 71.7981 68.0125 71.7492 68.1326C71.7003 68.2527 71.6281 68.3619 71.5367 68.454C71.4453 68.546 71.3365 68.6191 71.2166 68.669C71.0967 68.7189 70.9682 68.7445 70.8383 68.7445H66.536C66.4062 68.7445 66.2776 68.7189 66.1577 68.669C66.0378 68.6191 65.9291 68.546 65.8377 68.454C65.7462 68.3619 65.674 68.2527 65.6251 68.1326C65.5763 68.0125 65.5517 67.884 65.5529 67.7544V64.7658C65.5529 64.5056 65.6565 64.2561 65.8409 64.0721C66.0252 63.888 66.2753 63.7847 66.536 63.7847H70.8383C71.099 63.7847 71.3491 63.888 71.5335 64.0721C71.7178 64.2561 71.8214 64.5056 71.8214 64.7658V67.7544Z" fill="#002F67"></path>
            <path d="M7.74765 47.7446H25.7865C26.0257 47.7446 26.2551 47.6498 26.4243 47.481C26.5934 47.3122 26.6884 47.0832 26.6884 46.8445C26.6884 46.6058 26.5934 46.3768 26.4243 46.208C26.2551 46.0392 26.0257 45.9443 25.7865 45.9443H7.74765C7.50844 45.9443 7.27902 46.0392 7.10988 46.208C6.94073 46.3768 6.8457 46.6058 6.8457 46.8445C6.8457 47.0832 6.94073 47.3122 7.10988 47.481C7.27902 47.6498 7.50844 47.7446 7.74765 47.7446Z" fill="#002F67"></path>
            <path d="M37.7463 53.1904H7.74765C7.50844 53.1904 7.27902 53.2853 7.10988 53.4541C6.94073 53.6229 6.8457 53.8518 6.8457 54.0906C6.8457 54.3293 6.94073 54.5583 7.10988 54.7271C7.27902 54.8959 7.50844 54.9907 7.74765 54.9907H37.7463C37.9855 54.9907 38.2149 54.8959 38.384 54.7271C38.5532 54.5583 38.6482 54.3293 38.6482 54.0906C38.6482 53.8518 38.5532 53.6229 38.384 53.4541C38.2149 53.2853 37.9855 53.1904 37.7463 53.1904Z" fill="#002F67"></path>
            <path d="M37.7463 60.4277H7.74765C7.50844 60.4277 7.27902 60.5226 7.10988 60.6914C6.94073 60.8602 6.8457 61.0892 6.8457 61.3279C6.8457 61.5666 6.94073 61.7956 7.10988 61.9644C7.27902 62.1332 7.50844 62.228 7.74765 62.228H37.7463C37.9855 62.228 38.2149 62.1332 38.384 61.9644C38.5532 61.7956 38.6482 61.5666 38.6482 61.3279C38.6482 61.0892 38.5532 60.8602 38.384 60.6914C38.2149 60.5226 37.9855 60.4277 37.7463 60.4277Z" fill="#002F67"></path>
            <path d="M10.4088 35.2593C10.5777 35.427 10.8063 35.5211 11.0446 35.5211C11.2829 35.5211 11.5115 35.427 11.6805 35.2593L35.131 11.8553C35.2254 11.7746 35.3021 11.6753 35.3562 11.5637C35.4104 11.452 35.4408 11.3303 35.4456 11.2064C35.4504 11.0824 35.4295 10.9588 35.3841 10.8433C35.3388 10.7278 35.27 10.6229 35.1821 10.5351C35.0942 10.4474 34.9891 10.3788 34.8733 10.3335C34.7576 10.2883 34.6337 10.2674 34.5095 10.2722C34.3853 10.2769 34.2634 10.3073 34.1515 10.3613C34.0396 10.4154 33.9401 10.4919 33.8593 10.5861L10.4088 33.9901C10.2408 34.1588 10.1465 34.3869 10.1465 34.6247C10.1465 34.8625 10.2408 35.0907 10.4088 35.2593Z" fill="#002F67"></path>
            <path d="M34.4089 29.7408C34.4089 28.8363 34.1401 27.9522 33.6367 27.2003C33.1332 26.4483 32.4176 25.8622 31.5804 25.5161C30.7432 25.1699 29.8219 25.0794 28.9331 25.2558C28.0443 25.4323 27.2279 25.8678 26.5871 26.5073C25.9463 27.1468 25.51 27.9616 25.3332 28.8487C25.1564 29.7357 25.2471 30.6551 25.5939 31.4907C25.9407 32.3262 26.528 33.0404 27.2814 33.5429C28.0349 34.0454 28.9208 34.3135 29.827 34.3135C31.0414 34.3112 32.2055 33.8286 33.0642 32.9716C33.923 32.1145 34.4065 30.9528 34.4089 29.7408Z" fill="#FCE0B2"></path>
            <path d="M29.8272 23.3682C28.5642 23.3682 27.3296 23.7419 26.2794 24.4422C25.2293 25.1425 24.4108 26.1378 23.9275 27.3024C23.4442 28.4669 23.3177 29.7483 23.5641 30.9846C23.8105 32.2208 24.4187 33.3564 25.3117 34.2477C26.2048 35.139 27.3426 35.746 28.5814 35.9919C29.8201 36.2378 31.104 36.1116 32.2709 35.6292C33.4377 35.1469 34.435 34.33 35.1367 33.282C35.8384 32.2339 36.2129 31.0017 36.2129 29.7413C36.2105 28.0517 35.537 26.4321 34.3399 25.2374C33.1429 24.0428 31.52 23.3705 29.8272 23.3682ZM25.2453 29.7413C25.2453 28.8368 25.514 27.9527 26.0175 27.2008C26.5209 26.4488 27.2365 25.8627 28.0738 25.5166C28.911 25.1704 29.8322 25.0799 30.721 25.2563C31.6098 25.4328 32.4262 25.8683 33.067 26.5078C33.7078 27.1473 34.1442 27.9621 34.321 28.8492C34.4978 29.7362 34.407 30.6556 34.0603 31.4912C33.7135 32.3267 33.1262 33.0409 32.3727 33.5434C31.6192 34.0459 30.7334 34.314 29.8272 34.314C28.6127 34.3117 27.4487 33.8291 26.5899 32.9721C25.7312 32.115 25.2477 30.9533 25.2453 29.7413Z" fill="#002F67"></path>
            <path d="M15.8016 20.3165C18.3321 20.3165 20.3835 18.2692 20.3835 15.7437C20.3835 13.2182 18.3321 11.1709 15.8016 11.1709C13.2711 11.1709 11.2197 13.2182 11.2197 15.7437C11.2197 18.2692 13.2711 20.3165 15.8016 20.3165Z" fill="#FCE0B2"></path>
            <path d="M15.8202 22.0811C17.0855 22.0775 18.3211 21.6988 19.3704 20.9931C20.4197 20.2874 21.2352 19.2866 21.7136 18.1175C22.1919 16.9485 22.3115 15.664 22.0572 14.427C21.8029 13.19 21.1861 12.0563 20.2851 11.1698C19.3841 10.2832 18.2395 9.68376 16.9965 9.4475C15.7536 9.21124 14.4684 9.34882 13.3039 9.84276C12.1395 10.3367 11.1483 11.1647 10.4561 12.2218C9.76401 13.2789 9.40213 14.5174 9.41642 15.78C9.43545 17.4609 10.1191 19.0662 11.3185 20.2464C12.5179 21.4265 14.1359 22.086 15.8202 22.0811ZM15.8202 11.1352C16.7226 11.1389 17.6037 11.4084 18.3532 11.9099C19.1027 12.4114 19.6871 13.1226 20.0331 13.9543C20.3792 14.786 20.4715 15.7011 20.2984 16.585C20.1254 17.4688 19.6947 18.282 19.0604 18.9225C18.4261 19.563 17.6164 20.0023 16.7329 20.1853C15.8494 20.3684 14.9314 20.287 14.094 19.9514C13.2567 19.6157 12.5373 19.0408 12.0261 18.2988C11.5148 17.5567 11.2345 16.6805 11.2203 15.78C11.2155 15.175 11.3311 14.575 11.5604 14.0149C11.7896 13.4547 12.128 12.9456 12.5558 12.5169C12.9837 12.0882 13.4925 11.7485 14.0529 11.5175C14.6132 11.2866 15.214 11.1688 15.8202 11.1713V11.1352Z" fill="#002F67"></path>
        </g>
    </symbol>
    <symbol fill="none" xmlns="http://www.w3.org/2000/svg" viewBox="0 0 78 77" id="trade-in">
        <g clip-path="url(#clip0_1001_812)">
            <path d="M29.9847 40.3095L29.3688 40.2257C27.7823 40.021 26.4384 39.8721 25.3559 39.7791C24.0009 39.6947 22.6419 39.6947 21.2869 39.7791H20.867C20.8075 39.7836 20.7518 39.8098 20.7105 39.8527C20.6691 39.8957 20.6451 39.9522 20.643 40.0117V40.4304C20.5966 41.1224 20.6951 41.8163 20.9323 42.4682C21.0766 42.8171 21.3119 43.1211 21.6139 43.3486C21.9159 43.576 22.2735 43.7187 22.6495 43.7617H24.4226C24.8612 43.7617 28.4262 42.9056 29.0888 42.2356C29.4104 41.9284 29.6785 41.5699 29.8821 41.1748L30.162 40.6258C30.178 40.5908 30.1863 40.5527 30.1863 40.5142C30.1863 40.4756 30.178 40.4376 30.162 40.4025C30.1401 40.3761 30.1131 40.3543 30.0827 40.3384C30.0522 40.3224 30.019 40.3126 29.9847 40.3095ZM24.3853 42.431H22.6961C22.4716 42.3282 22.297 42.1408 22.2109 41.9099C22.1158 41.6507 22.0684 41.3764 22.0709 41.1004C23.1463 41.0399 24.2244 41.0399 25.2999 41.1004C26.0651 41.1655 26.961 41.2586 27.9783 41.3795C26.8253 41.8304 25.6357 42.1822 24.4226 42.431H24.3853Z" fill="#002F67"></path>
            <path d="M22.0245 41.101C22.022 41.3772 22.0695 41.6516 22.1645 41.911C22.2507 42.1421 22.4252 42.3296 22.6498 42.4324H24.4229C25.6191 42.193 26.7929 41.8535 27.9319 41.4175C26.9147 41.2965 26.0654 41.2034 25.2535 41.1382C24.1787 41.0652 23.1007 41.0528 22.0245 41.101Z" fill="#FCE0B2"></path>
            <path d="M46.7644 41.6871C46.5128 41.3699 46.1922 41.1137 45.8269 40.938C45.4615 40.7623 45.0609 40.6716 44.6553 40.6729H34.1097C33.7043 40.673 33.3041 40.7643 32.939 40.9399C32.5738 41.1155 32.2531 41.3709 32.0006 41.6871L30.666 43.3527C30.6455 43.3881 30.6348 43.4282 30.6348 43.4691C30.6348 43.5099 30.6455 43.55 30.666 43.5854L30.75 43.818C32.3738 48.2472 33.2231 49.1591 34.0537 49.1591H44.7766C45.6165 49.1591 46.4751 48.2286 48.0896 43.818L48.1829 43.5761C48.196 43.5381 48.1985 43.4973 48.1903 43.458C48.1821 43.4187 48.1634 43.3824 48.1362 43.3527L46.7644 41.6871ZM46.4844 44.0971C45.3459 47.0934 44.7952 47.6889 44.6179 47.8192H34.0723C33.951 47.7261 33.4004 47.1678 32.2059 44.0971C32.1612 43.9819 32.1471 43.857 32.1651 43.7347C32.1831 43.6125 32.2325 43.4969 32.3085 43.3993L33.1111 42.3943C33.199 42.2834 33.3111 42.1939 33.4388 42.1327C33.5665 42.0714 33.7066 42.04 33.8484 42.0407H44.7672C44.909 42.04 45.0491 42.0714 45.1768 42.1327C45.3045 42.1939 45.4166 42.2834 45.5045 42.3943L46.3071 43.3993C46.3975 43.4885 46.4617 43.6007 46.493 43.7237C46.5242 43.8466 46.5212 43.9757 46.4844 44.0971Z" fill="#002F67"></path>
            <path d="M55.9292 43.7897C56.3052 43.7467 56.6628 43.604 56.9647 43.3766C57.2667 43.1491 57.5021 42.8451 57.6463 42.4963C57.8843 41.8446 57.9829 41.1504 57.9356 40.4584V40.0397C57.9335 39.9803 57.9095 39.9237 57.8682 39.8808C57.8269 39.8379 57.7711 39.8116 57.7117 39.8071H57.2917C55.9369 39.718 54.5776 39.718 53.2228 39.8071C52.1402 39.9001 50.7964 40.049 49.2099 40.2537L48.5939 40.3375C48.5554 40.3413 48.5183 40.3543 48.4859 40.3754C48.4534 40.3964 48.4265 40.4249 48.4073 40.4584C48.3893 40.4929 48.3799 40.5312 48.3799 40.5701C48.3799 40.609 48.3893 40.6473 48.4073 40.6818L48.6873 41.2401C48.894 41.6303 49.1618 41.9852 49.4805 42.2916C50.1524 42.9615 53.7174 43.8176 54.1467 43.8176L55.9292 43.7897ZM53.3254 41.1377C54.4009 41.0772 55.479 41.0772 56.5544 41.1377C56.5569 41.4138 56.5095 41.688 56.4145 41.9473C56.3283 42.1782 56.1537 42.3656 55.9292 42.4683H54.1654C52.9807 42.2151 51.8194 41.8634 50.6937 41.4169C51.6269 41.2959 52.5602 41.2029 53.3254 41.1377Z" fill="#002F67"></path>
            <path d="M55.9286 42.4316C56.1532 42.3289 56.3277 42.1415 56.4139 41.9106C56.5089 41.6513 56.5564 41.3771 56.5539 41.101C55.4784 41.0405 54.4004 41.0405 53.3249 41.101C52.5596 41.1661 51.6544 41.2592 50.6465 41.3802C51.7885 41.8165 52.9654 42.1559 54.1648 42.3944L55.9286 42.4316Z" fill="#FCE0B2"></path>
            <path d="M54.3427 55.9145H59.3355C59.9338 55.912 60.5068 55.674 60.9298 55.2522C61.3528 54.8305 61.5915 54.2591 61.594 53.6626V40.4121C61.5954 40.0941 61.5334 39.779 61.4116 39.4851C61.2899 39.1912 61.1108 38.9243 60.8847 38.7L56.9651 34.7918C56.0319 32.9308 55.2013 31.4792 54.4921 30.3533C53.5728 28.9274 52.553 27.5685 51.4404 26.2869L51.3097 26.1287C51.2594 26.0782 51.1938 26.0455 51.1231 26.0357H50.9178C43.2426 25.3657 35.5233 25.3657 27.8481 26.0357H27.6428C27.5754 26.0474 27.5134 26.08 27.4655 26.1287L27.3255 26.2869C26.2188 27.5733 25.1993 28.9317 24.2738 30.3533C23.5459 31.5071 22.7153 32.9959 21.8007 34.7918L17.8905 38.6907C17.4325 39.1475 17.1742 39.7662 17.1719 40.4121V53.6999C17.1719 54.2996 17.4108 54.8747 17.8361 55.2987C18.2614 55.7228 18.8382 55.961 19.4396 55.961H24.4231C25.0246 55.961 25.6014 55.7228 26.0267 55.2987C26.452 54.8747 26.6909 54.2996 26.6909 53.6999V52.9741H52.0843V53.6999C52.0965 54.2898 52.3395 54.8517 52.7614 55.2655C53.1834 55.6793 53.7509 55.9122 54.3427 55.9145ZM25.571 31.1721C26.3967 29.894 27.3071 28.6723 28.2961 27.5152C35.6745 26.9011 43.0914 26.9011 50.4698 27.5152C51.4544 28.6758 52.3646 29.8972 53.1948 31.1721C53.7641 32.1026 54.3894 33.182 55.0613 34.4754H23.6859C24.3858 33.1727 25.0111 32.0654 25.571 31.1721ZM25.4217 51.4015C25.3499 51.4015 25.2811 51.4299 25.2303 51.4805C25.1796 51.5311 25.1511 51.5998 25.1511 51.6713V53.6999C25.1511 53.8932 25.0747 54.0788 24.9384 54.2164C24.8022 54.354 24.617 54.4325 24.4231 54.435H19.4396C19.2466 54.435 19.0614 54.3585 18.9249 54.2224C18.7884 54.0863 18.7117 53.9017 18.7117 53.7092V40.7378C18.7117 40.5166 18.7553 40.2976 18.8402 40.0932C18.9251 39.8889 19.0495 39.7032 19.2063 39.5467L22.7526 36.0108H56.0226L59.5595 39.5467C59.7193 39.7014 59.8463 39.8866 59.9328 40.0912C60.0194 40.2958 60.0638 40.5157 60.0635 40.7378V53.6999C60.0635 53.8932 59.9871 54.0788 59.8508 54.2164C59.7146 54.354 59.5295 54.4325 59.3355 54.435H54.3427C54.1488 54.4325 53.9637 54.354 53.8274 54.2164C53.6912 54.0788 53.6148 53.8932 53.6148 53.6999V51.7179C53.6148 51.6463 53.5863 51.5777 53.5355 51.527C53.4848 51.4764 53.4159 51.448 53.3442 51.448L25.4217 51.4015Z" fill="#002F67"></path>
            <path d="M6.07546 42.2827V25.2171C6.0804 20.7468 7.8636 16.461 11.0338 13.3001C14.204 10.1391 18.5024 8.36111 22.9857 8.35618H70.5342L65.6254 13.26C65.4969 13.3906 65.41 13.5561 65.3754 13.7357C65.3407 13.9153 65.36 14.1012 65.4307 14.27C65.5014 14.4387 65.6204 14.583 65.7729 14.6847C65.9253 14.7864 66.1045 14.8411 66.288 14.8419C66.4108 14.8426 66.5325 14.8191 66.6462 14.7728C66.7599 14.7265 66.8633 14.6582 66.9506 14.572L72.5033 9.03545C72.7163 8.82367 72.8854 8.57205 73.0007 8.29501C73.1161 8.01798 73.1754 7.72097 73.1754 7.42101C73.1754 7.12105 73.1161 6.82404 73.0007 6.54701C72.8854 6.26997 72.7163 6.01835 72.5033 5.80657L66.9506 0.223487C66.8638 0.136272 66.7606 0.0670507 66.6469 0.0198098C66.5331 -0.0274312 66.4112 -0.0517578 66.288 -0.0517578C66.1648 -0.0517578 66.0428 -0.0274312 65.9291 0.0198098C65.8153 0.0670507 65.7121 0.136272 65.6254 0.223487C65.4515 0.397831 65.354 0.633673 65.354 0.879501C65.354 1.12533 65.4515 1.36117 65.6254 1.53551L70.5528 6.44863H22.9857C18.0073 6.45355 13.2343 8.42762 9.71402 11.9376C6.19377 15.4476 4.21393 20.2067 4.20898 25.1706V42.2362C4.20898 42.483 4.30731 42.7196 4.48232 42.8941C4.65734 43.0686 4.89471 43.1667 5.14222 43.1667C5.38973 43.1667 5.62711 43.0686 5.80212 42.8941C5.97714 42.7196 6.07546 42.483 6.07546 42.2362V42.2827Z" fill="#002F67"></path>
            <path d="M18.7767 3.95477C19.0243 3.95477 19.2616 3.85673 19.4366 3.68223C19.6117 3.50772 19.71 3.27104 19.71 3.02426C19.71 2.77747 19.6117 2.5408 19.4366 2.36629C19.2616 2.19179 19.0243 2.09375 18.7767 2.09375C13.7984 2.09868 9.02529 4.07274 5.50503 7.58272C1.98478 11.0927 0.00494133 15.8518 0 20.8157C0 21.0625 0.0983222 21.2992 0.273338 21.4737C0.448354 21.6482 0.685728 21.7462 0.933238 21.7462C1.18075 21.7462 1.41812 21.6482 1.59314 21.4737C1.76815 21.2992 1.86648 21.0625 1.86648 20.8157C1.87142 16.3454 3.65461 12.0596 6.82483 8.89866C9.99505 5.7377 14.2934 3.9597 18.7767 3.95477Z" fill="#FCE0B2"></path>
            <path d="M77.057 55.4023C76.8095 55.4023 76.5721 55.5004 76.3971 55.6749C76.2221 55.8494 76.1238 56.0861 76.1238 56.3329C76.1275 58.5503 75.6929 60.7467 74.845 62.7966C73.997 64.8466 72.7523 66.7098 71.1819 68.28C69.6115 69.8501 67.7462 71.0963 65.6927 71.9474C63.6391 72.7985 61.4374 73.2378 59.2135 73.2403C58.966 73.2403 58.7286 73.3383 58.5536 73.5128C58.3786 73.6873 58.2803 73.924 58.2803 74.1708C58.2803 74.4176 58.3786 74.6543 58.5536 74.8288C58.7286 75.0033 58.966 75.1013 59.2135 75.1013C64.1935 75.0964 68.968 73.121 72.4885 69.609C76.009 66.0971 77.9878 61.3355 77.9902 56.3701C77.9953 56.2448 77.9749 56.1198 77.9302 56.0025C77.8856 55.8853 77.8176 55.7783 77.7305 55.6879C77.6433 55.5975 77.5387 55.5256 77.423 55.4766C77.3073 55.4275 77.1828 55.4022 77.057 55.4023Z" fill="#FCE0B2"></path>
            <path d="M73.716 51.7735V34.7079C73.716 34.4611 73.6177 34.2244 73.4427 34.0499C73.2677 33.8754 73.0303 33.7773 72.7828 33.7773C72.5353 33.7773 72.2979 33.8754 72.1229 34.0499C71.9479 34.2244 71.8496 34.4611 71.8496 34.7079V51.7735C71.8446 56.2438 70.0614 60.5295 66.8912 63.6905C63.721 66.8515 59.4227 68.6295 54.9393 68.6344H7.34419L12.2623 63.7306C12.36 63.6472 12.4394 63.5445 12.4954 63.4291C12.5514 63.3136 12.5829 63.1879 12.5879 63.0597C12.5928 62.9316 12.5712 62.8038 12.5242 62.6844C12.4773 62.565 12.4062 62.4565 12.3152 62.3658C12.2243 62.2752 12.1155 62.2042 11.9957 62.1574C11.876 62.1106 11.7478 62.089 11.6193 62.094C11.4908 62.0989 11.3647 62.1303 11.2489 62.1862C11.1331 62.242 11.0301 62.3211 10.9465 62.4186L5.34706 67.9551C4.92133 68.3852 4.68262 68.9652 4.68262 69.5695C4.68262 70.1739 4.92133 70.7539 5.34706 71.184L10.9465 76.7671C11.1213 76.9404 11.3579 77.0377 11.6044 77.0377C11.851 77.0377 12.0875 76.9404 12.2623 76.7671C12.4362 76.5927 12.5337 76.3569 12.5337 76.1111C12.5337 75.8652 12.4362 75.6294 12.2623 75.4551L7.34419 70.5419H54.9393C57.4083 70.5395 59.8527 70.052 62.1327 69.1074C64.4128 68.1628 66.4838 66.7794 68.2275 65.0365C69.9712 63.2936 71.3534 61.2252 72.2952 58.9495C73.2369 56.6737 73.7197 54.2353 73.716 51.7735Z" fill="#002F67"></path>
            <path d="M53.1944 31.1722C52.3641 29.8973 51.454 28.6759 50.4693 27.5153C43.0909 26.9012 35.674 26.9012 28.2956 27.5153C27.3067 28.6724 26.3963 29.8941 25.5706 31.1722C25.0106 32.1027 24.3854 33.1728 23.7041 34.4755H55.0795C54.4263 33.2286 53.7637 32.0748 53.1944 31.1722Z" fill="#FCE0B2"></path>
        </g>
    </symbol>
    <symbol fill="none" xmlns="http://www.w3.org/2000/svg" viewBox="0 0 78 75" id="sell-car">
        <g clip-path="url(#clip0_1001_468)">
            <path d="M26.0441 69.5014H3.81393C3.27071 69.5014 2.74974 69.2842 2.36562 68.8977C1.98151 68.5112 1.7657 67.987 1.7657 67.4405V3.8375C1.7657 3.2901 1.98122 2.76499 2.36508 2.37709C2.74894 1.98918 3.2699 1.77008 3.81393 1.76774H43.4187H43.5511V11.3615C43.5511 12.0683 43.8302 12.7461 44.3269 13.2459C44.8236 13.7456 45.4972 14.0264 46.1997 14.0264H55.7345C55.7345 14.0264 55.7345 14.1152 55.7345 14.1597V39.3521C55.7345 39.5877 55.8275 39.8137 55.9931 39.9802C56.1586 40.1468 56.3832 40.2404 56.6173 40.2404C56.8515 40.2404 57.076 40.1468 57.2416 39.9802C57.4072 39.8137 57.5002 39.5877 57.5002 39.3521V14.2129C57.5012 13.7728 57.4159 13.3368 57.2493 12.9298C57.0826 12.5228 56.8379 12.1529 56.529 11.8412L45.7318 0.986025C45.423 0.673279 45.0557 0.425136 44.6511 0.255904C44.2465 0.0866713 43.8127 -0.000302252 43.3745 7.89188e-07H3.81393C2.80232 0.00468877 1.83361 0.411716 1.11911 1.13229C0.404616 1.85287 0.00232019 2.82851 0 3.84638V67.4494C0.00233172 68.4664 0.404906 69.4411 1.11965 70.1603C1.83439 70.8795 2.80313 71.2845 3.81393 71.2868H26.0441C26.2783 71.2868 26.5028 71.1933 26.6684 71.0267C26.834 70.8601 26.927 70.6341 26.927 70.3985C26.927 70.1629 26.834 69.937 26.6684 69.7704C26.5028 69.6038 26.2783 69.5102 26.0441 69.5102V69.5014ZM54.5338 12.2942H46.2438C46.0097 12.2942 45.7851 12.2006 45.6196 12.034C45.454 11.8674 45.361 11.6415 45.361 11.4059V3.05578L54.5338 12.2942Z" fill="#002F67"></path>
            <path d="M22.9016 16.1318H17.6045V23.7713H22.9016C23.5182 23.769 24.1088 23.5208 24.544 23.0813C24.9792 22.6418 25.2235 22.0466 25.2235 21.4262V18.477C25.2235 17.8565 24.9792 17.2614 24.544 16.8218C24.1088 16.3823 23.5182 16.1342 22.9016 16.1318Z" fill="#FCE0B2"></path>
            <path d="M32.242 23.2557C32.2438 20.8887 31.5478 18.5745 30.2422 16.6056C28.9365 14.6367 27.0799 13.1016 24.907 12.1946C22.7342 11.2876 20.3428 11.0494 18.0354 11.5101C15.728 11.9708 13.6082 13.1097 11.9442 14.7827C10.2802 16.4558 9.14673 18.5878 8.68716 20.9092C8.22759 23.2305 8.46258 25.6368 9.36239 27.8237C10.2622 30.0107 11.7864 31.88 13.7423 33.1951C15.6981 34.5103 17.9976 35.2123 20.35 35.2123C23.5017 35.21 26.5238 33.9498 28.7533 31.7082C30.9827 29.4667 32.2374 26.4269 32.242 23.2557ZM26.9891 21.4258C26.9902 21.9666 26.8854 22.5024 26.6805 23.0024C26.4756 23.5024 26.1747 23.9569 25.795 24.3397C25.4153 24.7226 24.9643 25.0263 24.4678 25.2336C23.9713 25.4408 23.439 25.5475 22.9015 25.5475H17.6044V26.9333H22.1511C22.3852 26.9333 22.6098 27.0269 22.7753 27.1935C22.9409 27.36 23.0339 27.586 23.0339 27.8216C23.0339 28.0572 22.9409 28.2831 22.7753 28.4497C22.6098 28.6163 22.3852 28.7099 22.1511 28.7099H17.6397V31.9433C17.6397 32.1789 17.5467 32.4049 17.3811 32.5715C17.2155 32.7381 16.991 32.8316 16.7568 32.8316C16.5227 32.8316 16.2981 32.7381 16.1326 32.5715C15.967 32.4049 15.874 32.1789 15.874 31.9433V28.7099H14.9911C14.757 28.7099 14.5324 28.6163 14.3668 28.4497C14.2013 28.2831 14.1083 28.0572 14.1083 27.8216C14.1083 27.586 14.2013 27.36 14.3668 27.1935C14.5324 27.0269 14.757 26.9333 14.9911 26.9333H15.874V15.3852C15.8856 15.3571 15.8916 15.3269 15.8916 15.2964C15.8916 15.2659 15.8856 15.2357 15.874 15.2076C15.874 14.972 15.967 14.746 16.1326 14.5795C16.2981 14.4129 16.5227 14.3193 16.7568 14.3193H22.9368C23.4743 14.3193 24.0066 14.426 24.5031 14.6332C24.9996 14.8404 25.4506 15.1442 25.8303 15.527C26.21 15.9099 26.5109 16.3643 26.7158 16.8644C26.9207 17.3644 27.0255 17.9002 27.0244 18.441L26.9891 21.4258Z" fill="#FCE0B2"></path>
            <path d="M20.35 9.52246C17.6509 9.52422 15.0129 10.3311 12.7695 11.8412C10.5261 13.3513 8.77809 15.4968 7.74639 18.0064C6.71469 20.516 6.44566 23.277 6.9733 25.9404C7.50095 28.6038 8.80157 31.05 10.7108 32.9698C12.6199 34.8895 15.052 36.1966 17.6993 36.7258C20.3467 37.2549 23.0906 36.9825 25.5841 35.9428C28.0776 34.9031 30.2088 33.1428 31.7081 30.8846C33.2075 28.6264 34.0078 25.9715 34.0078 23.2557C34.0031 19.6134 32.5624 16.1216 30.0018 13.5469C27.4413 10.9722 23.97 9.52481 20.35 9.52246ZM8.46685 23.2557C8.4651 20.8884 9.16129 18.5738 10.4673 16.6047C11.7734 14.6356 13.6306 13.1006 15.8039 12.1938C17.9772 11.2871 20.3691 11.0494 22.6767 11.5108C24.9844 11.9722 27.1041 13.112 28.7678 14.7859C30.4315 16.4599 31.5642 18.5928 32.0228 20.9147C32.4814 23.2366 32.2451 25.6432 31.344 27.83C30.4428 30.0167 28.9172 31.8854 26.9602 33.1995C25.0032 34.5136 22.7028 35.2141 20.35 35.2124C17.1999 35.2077 14.18 33.9465 11.9525 31.7052C9.72499 29.4639 8.47152 26.4254 8.46685 23.2557Z" fill="#002F67"></path>
            <path d="M7.58402 47.1253H19.3966C19.6307 47.1253 19.8553 47.0317 20.0208 46.8651C20.1864 46.6985 20.2794 46.4725 20.2794 46.2369C20.2794 46.0013 20.1864 45.7754 20.0208 45.6088C19.8553 45.4422 19.6307 45.3486 19.3966 45.3486H7.58402C7.34988 45.3486 7.12532 45.4422 6.95975 45.6088C6.79419 45.7754 6.70117 46.0013 6.70117 46.2369C6.70117 46.4725 6.79419 46.6985 6.95975 46.8651C7.12532 47.0317 7.34988 47.1253 7.58402 47.1253Z" fill="#002F67"></path>
            <path d="M27.1745 52.499H7.58402C7.34988 52.499 7.12532 52.5926 6.95975 52.7592C6.79419 52.9258 6.70117 53.1517 6.70117 53.3873C6.70117 53.6229 6.79419 53.8489 6.95975 54.0155C7.12532 54.1821 7.34988 54.2756 7.58402 54.2756H27.1745C27.4087 54.2756 27.6332 54.1821 27.7988 54.0155C27.9643 53.8489 28.0574 53.6229 28.0574 53.3873C28.0574 53.1517 27.9643 52.9258 27.7988 52.7592C27.6332 52.5926 27.4087 52.499 27.1745 52.499Z" fill="#002F67"></path>
            <path d="M27.1745 59.6416H7.58402C7.34988 59.6416 7.12532 59.7352 6.95975 59.9018C6.79419 60.0684 6.70117 60.2943 6.70117 60.5299C6.70117 60.7655 6.79419 60.9915 6.95975 61.158C7.12532 61.3246 7.34988 61.4182 7.58402 61.4182H27.1745C27.4087 61.4182 27.6332 61.3246 27.7988 61.158C27.9643 60.9915 28.0574 60.7655 28.0574 60.5299C28.0574 60.2943 27.9643 60.0684 27.7988 59.9018C27.6332 59.7352 27.4087 59.6416 27.1745 59.6416Z" fill="#002F67"></path>
            <path d="M44.0017 58.0603L43.3484 57.9803C41.6356 57.7494 40.1877 57.5895 39.0312 57.4918C37.5615 57.3921 36.0867 57.3921 34.617 57.4918H34.1755C34.1092 57.4941 34.0463 57.5222 34.0002 57.5703C33.9541 57.6183 33.9283 57.6826 33.9283 57.7494V58.2024C33.8778 58.9533 33.983 59.7065 34.2373 60.4143C34.3938 60.7934 34.6483 61.1234 34.9743 61.3702C35.3003 61.617 35.686 61.7716 36.0913 61.8178H37.9894C38.4662 61.8178 42.2978 60.9295 43.0217 60.1656C43.3783 59.8332 43.6767 59.4428 43.9046 59.0108L44.2047 58.4067C44.2241 58.3713 44.2342 58.3316 44.2342 58.2912C44.2342 58.2509 44.2241 58.2111 44.2047 58.1758C44.1824 58.1417 44.1523 58.1135 44.117 58.0934C44.0817 58.0733 44.0422 58.062 44.0017 58.0603ZM38.0159 60.3699H36.1178C35.8741 60.2575 35.6839 60.0533 35.5881 59.8014C35.4901 59.5155 35.4394 59.2154 35.438 58.9131C36.5936 58.8463 37.752 58.8463 38.9076 58.9131C39.7375 58.9752 40.6733 59.0818 41.7945 59.2151C40.5706 59.7093 39.3063 60.0957 38.0159 60.3699Z" fill="#002F67"></path>
            <path d="M35.4375 58.9303C35.4389 59.2327 35.4896 59.5328 35.5876 59.8186C35.6834 60.0706 35.8736 60.2747 36.1173 60.3871H38.0154C39.3042 60.1302 40.5684 59.7617 41.794 59.2856C40.7081 59.1524 39.737 59.0458 38.9071 58.9836C37.7525 58.8991 36.5941 58.8813 35.4375 58.9303Z" fill="#FCE0B2"></path>
            <path d="M62.0559 59.5615C61.7846 59.2178 61.4396 58.9402 61.0467 58.7494C60.6538 58.5587 60.2232 58.4598 59.7869 58.46H48.4423C48.0058 58.4585 47.5748 58.5568 47.1817 58.7477C46.7886 58.9385 46.4438 59.2168 46.1734 59.5615L44.7343 61.3381C44.7126 61.3759 44.7012 61.4188 44.7012 61.4625C44.7012 61.5061 44.7126 61.549 44.7343 61.5868L44.8226 61.8444C46.5883 66.6591 47.4712 67.6451 48.354 67.6451H59.8841C60.7669 67.6451 61.7116 66.6768 63.4596 61.8444L63.5479 61.5868C63.5624 61.545 63.5659 61.5002 63.5582 61.4566C63.5505 61.4131 63.5317 61.3722 63.5037 61.3381L62.0559 59.5615ZM61.7557 62.1731C60.5285 65.4332 59.9282 66.0728 59.7958 66.1883H48.4511C48.3275 66.0906 47.7272 65.4954 46.4735 62.1731C46.426 62.048 46.4116 61.9127 46.4317 61.7803C46.4518 61.6479 46.5058 61.5231 46.5883 61.418L47.4712 60.3254C47.5678 60.2072 47.6891 60.1118 47.8263 60.0458C47.9636 59.9798 48.1136 59.9449 48.2657 59.9435H60.0165C60.1675 59.9437 60.3166 59.9782 60.4526 60.0443C60.5886 60.1104 60.7081 60.2065 60.8022 60.3254L61.6851 61.418C61.7603 61.5272 61.8064 61.654 61.8188 61.7863C61.8311 61.9185 61.8094 62.0518 61.7557 62.1731Z" fill="#002F67"></path>
            <path d="M73.8243 57.5185H73.3741C71.9043 57.4183 70.4296 57.4183 68.9598 57.5185C67.8033 57.6162 66.3112 57.7761 64.6427 58.007L63.9805 58.087C63.9391 58.0929 63.8997 58.1089 63.8658 58.1337C63.832 58.1585 63.8046 58.1913 63.7863 58.2291C63.767 58.2645 63.7568 58.3042 63.7568 58.3446C63.7568 58.385 63.767 58.4247 63.7863 58.4601L64.0953 59.073C64.3237 59.4995 64.6222 59.8839 64.9781 60.21C65.7021 60.9473 69.5425 61.8712 70.0104 61.8712H71.9173C72.3217 61.8253 72.7064 61.6707 73.031 61.4238C73.3557 61.1768 73.6083 60.8466 73.7625 60.4677C74.0196 59.7606 74.1249 59.0068 74.0715 58.2558V57.8027C74.0752 57.7675 74.0716 57.7318 74.0609 57.698C74.0502 57.6642 74.0328 57.633 74.0096 57.6063C73.9864 57.5797 73.9579 57.5581 73.926 57.543C73.8942 57.5278 73.8595 57.5195 73.8243 57.5185ZM72.4294 59.8014C72.3334 60.0503 72.1473 60.2534 71.9085 60.37H70.0104C68.7192 60.1114 67.4522 59.7429 66.223 59.2684C67.3177 59.1352 68.28 59.0286 69.1099 58.9664C70.2652 58.8909 71.4242 58.8909 72.5795 58.9664C72.5786 59.2515 72.5278 59.5341 72.4294 59.8014Z" fill="#002F67"></path>
            <path d="M69.1096 58.9663C68.2797 59.0285 67.3439 59.1351 66.2227 59.2684C67.4518 59.7428 68.7189 60.1113 70.0101 60.3699H71.9082C72.147 60.2533 72.3331 60.0502 72.4291 59.8013C72.5338 59.5173 72.5847 59.216 72.5792 58.913C71.4227 58.8552 70.2637 58.873 69.1096 58.9663Z" fill="#FCE0B2"></path>
            <path d="M77.2315 56.3101L73.0203 52.0729C72.0227 50.1009 71.131 48.5197 70.3717 47.2671C69.3792 45.7128 68.2819 44.2288 67.0875 42.8256L66.9463 42.6479C66.8937 42.5951 66.8256 42.5609 66.7521 42.5502H66.5313C58.2749 41.8218 49.9708 41.8218 41.7144 42.5502H41.4936C41.4188 42.5564 41.3492 42.5914 41.2994 42.6479L41.1582 42.8256C39.962 44.2295 38.8618 45.7135 37.8651 47.2671C37.0882 48.5108 36.1965 50.1275 35.2166 52.0729L31.0054 56.3101C30.5193 56.8079 30.2467 57.4777 30.2461 58.1756V72.5484C30.2449 72.8711 30.3071 73.1909 30.429 73.4894C30.551 73.7879 30.7303 74.0592 30.9567 74.2878C31.183 74.5164 31.4521 74.6978 31.7483 74.8216C32.0445 74.9454 32.362 75.0091 32.6828 75.0091H38.0417C38.6873 75.0021 39.3044 74.7403 39.7601 74.2801C40.2159 73.8199 40.4738 73.1981 40.4784 72.5484V71.7667H67.785V72.5484C67.7873 73.1988 68.0445 73.822 68.5007 74.2827C68.9569 74.7434 69.5753 75.0044 70.2217 75.0091H75.5806C76.2261 75.0067 76.8445 74.7477 77.301 74.2884C77.7575 73.8291 78.0149 73.2068 78.0172 72.5573V58.1756C78.0096 57.4739 77.7273 56.8036 77.2315 56.3101ZM39.2689 48.1466C40.1584 46.7627 41.1376 45.4392 42.1999 44.1847C50.1315 43.5101 58.1054 43.5101 66.037 44.1847C67.0993 45.4392 68.0785 46.7627 68.968 48.1466C69.5772 49.1237 70.257 50.3318 70.9897 51.6998H37.2295C37.9711 50.3229 38.6509 49.1148 39.26 48.1821L39.2689 48.1466ZM76.3487 72.5484C76.3464 72.7582 76.2632 72.959 76.1166 73.1081C75.9699 73.2573 75.7714 73.3433 75.5629 73.3479H70.204C69.9955 73.3433 69.797 73.2573 69.6504 73.1081C69.5037 72.959 69.4205 72.7582 69.4183 72.5484V70.3898C69.4183 70.3518 69.4107 70.3141 69.396 70.279C69.3812 70.2439 69.3596 70.2122 69.3324 70.1856C69.3053 70.1591 69.2731 70.1384 69.2378 70.1246C69.2024 70.1109 69.1648 70.1044 69.1269 70.1056H39.11C39.035 70.1056 38.9632 70.1355 38.9102 70.1888C38.8572 70.2422 38.8274 70.3145 38.8274 70.3898V72.5484C38.8252 72.7582 38.742 72.959 38.5953 73.1081C38.4487 73.2573 38.2502 73.3433 38.0417 73.3479H32.674C32.4671 73.3456 32.2695 73.2613 32.124 73.1132C31.9786 72.9652 31.897 72.7655 31.897 72.5573V58.5309C31.8933 58.2899 31.9383 58.0506 32.0294 57.8276C32.1204 57.6047 32.2556 57.4027 32.4268 57.234L36.2407 53.3965H72.0227L75.8366 57.234C76.0077 57.4027 76.1429 57.6047 76.234 57.8276C76.3251 58.0506 76.3701 58.2899 76.3663 58.5309L76.3487 72.5484Z" fill="#002F67"></path>
            <path d="M68.968 48.1817C68.0784 46.7978 67.0993 45.4743 66.0369 44.2198C58.1054 43.5452 50.1315 43.5452 42.1999 44.2198C41.1376 45.4743 40.1584 46.7978 39.2689 48.1817C38.6597 49.15 37.9799 50.3581 37.2383 51.7349H70.9632C70.257 50.3314 69.5772 49.1233 68.968 48.1817Z" fill="#FCE0B2"></path>
            <path d="M22.9008 14.3546H16.7208C16.4867 14.3546 16.2621 14.4482 16.0966 14.6148C15.931 14.7814 15.838 15.0074 15.838 15.243C15.8496 15.2711 15.8556 15.3013 15.8556 15.3318C15.8556 15.3623 15.8496 15.3925 15.838 15.4206V26.9686H14.9551C14.721 26.9686 14.4964 27.0622 14.3308 27.2288C14.1653 27.3954 14.0723 27.6214 14.0723 27.857C14.0723 28.0926 14.1653 28.3185 14.3308 28.4851C14.4964 28.6517 14.721 28.7453 14.9551 28.7453H15.838V31.9787C15.838 32.2143 15.931 32.4403 16.0966 32.6068C16.2621 32.7734 16.4867 32.867 16.7208 32.867C16.955 32.867 17.1795 32.7734 17.3451 32.6068C17.5107 32.4403 17.6037 32.2143 17.6037 31.9787V28.7453H22.1504C22.3845 28.7453 22.6091 28.6517 22.7746 28.4851C22.9402 28.3185 23.0332 28.0926 23.0332 27.857C23.0332 27.6214 22.9402 27.3954 22.7746 27.2288C22.6091 27.0622 22.3845 26.9686 22.1504 26.9686H17.639V25.5829H22.9361C23.4736 25.5829 24.0059 25.4762 24.5024 25.269C24.9989 25.0617 25.4499 24.758 25.8296 24.3751C26.2093 23.9923 26.5102 23.5378 26.7151 23.0378C26.92 22.5378 27.0249 22.002 27.0237 21.4611V18.5119C27.0296 17.9651 26.927 17.4226 26.722 16.9161C26.517 16.4096 26.2137 15.9493 25.8298 15.5622C25.4459 15.1751 24.9891 14.8689 24.4862 14.6616C23.9833 14.4542 23.4443 14.3499 22.9008 14.3546ZM25.2227 21.4611C25.2227 22.0816 24.9784 22.6767 24.5432 23.1163C24.108 23.5558 23.5174 23.8039 22.9008 23.8063H17.6037V16.1668H22.9008C23.5174 16.1692 24.108 16.4173 24.5432 16.8568C24.9784 17.2964 25.2227 17.8915 25.2227 18.5119V21.4611Z" fill="#002F67"></path>
        </g>
    </symbol>
    <symbol xmlns="http://www.w3.org/2000/svg" viewBox="0 0 16 16" id="share">
        <path d="M12.872 9.4503C12.3921 9.45069 11.9195 9.56785 11.4949 9.79167C11.0704 10.0155 10.7067 10.3392 10.4353 10.735L6.30384 8.86953C6.59728 8.16094 6.59842 7.36503 6.30701 6.6556L10.4327 4.78063C10.8351 5.36251 11.4326 5.78093 12.117 5.95998C12.8014 6.13902 13.5273 6.06684 14.1631 5.75652C14.7988 5.4462 15.3023 4.9183 15.5822 4.26857C15.862 3.61885 15.8997 2.89033 15.6885 2.21518C15.4772 1.54002 15.031 0.96294 14.4307 0.588616C13.8304 0.214292 13.1158 0.0675173 12.4166 0.174915C11.7174 0.282313 11.0798 0.63677 10.6195 1.17399C10.1592 1.71121 9.90671 2.39561 9.90781 3.10305C9.9105 3.27049 9.92749 3.43739 9.95859 3.60194L5.57264 5.59498C5.1514 5.20032 4.62404 4.9373 4.05537 4.83823C3.4867 4.73917 2.90148 4.80837 2.3716 5.03735C1.84171 5.26632 1.39026 5.64508 1.07268 6.12711C0.755113 6.60914 0.58526 7.17343 0.583992 7.75066C0.582723 8.3279 0.750095 8.89293 1.06555 9.37635C1.381 9.85977 1.83079 10.2405 2.35966 10.4718C2.88852 10.7031 3.47344 10.7749 4.04254 10.6783C4.61164 10.5818 5.14014 10.3211 5.56312 9.92825L9.96049 11.9137C9.92995 12.0781 9.91318 12.2447 9.91035 12.4119C9.91023 12.9979 10.0839 13.5707 10.4093 14.0579C10.7348 14.5452 11.1974 14.9249 11.7387 15.1492C12.28 15.3735 12.8757 15.4322 13.4504 15.3179C14.0251 15.2037 14.5529 14.9215 14.9673 14.5072C15.3816 14.0929 15.6637 13.565 15.778 12.9903C15.8923 12.4156 15.8336 11.82 15.6093 11.2787C15.385 10.7374 15.0052 10.2747 14.518 9.94927C14.0307 9.62382 13.4579 9.45018 12.872 9.4503ZM12.872 1.41023C13.2068 1.41011 13.5342 1.50928 13.8126 1.69522C14.0911 1.88115 14.3082 2.14548 14.4364 2.45479C14.5646 2.7641 14.5982 3.10449 14.533 3.43291C14.4677 3.76132 14.3066 4.06301 14.0698 4.29982C13.8331 4.53663 13.5315 4.69792 13.2031 4.76329C12.8747 4.82865 12.5343 4.79517 12.225 4.66706C11.9156 4.53896 11.6512 4.32198 11.4651 4.04359C11.2791 3.76519 11.1798 3.43788 11.1798 3.10305C11.1801 2.6543 11.3585 2.22401 11.6758 1.90664C11.993 1.58927 12.4232 1.41074 12.872 1.41023ZM3.5631 9.4503C3.22826 9.45043 2.90091 9.35125 2.62245 9.16532C2.34398 8.97939 2.12691 8.71505 1.99869 8.40574C1.87047 8.09643 1.83685 7.75604 1.9021 7.42763C1.96734 7.09921 2.12852 6.79752 2.36524 6.56071C2.60196 6.32391 2.90359 6.16262 3.23198 6.09725C3.56037 6.03188 3.90077 6.06537 4.21013 6.19347C4.51948 6.32158 4.7839 6.53855 4.96994 6.81695C5.15598 7.09534 5.25527 7.42265 5.25527 7.75749C5.25477 8.20619 5.07635 8.63637 4.75913 8.95371C4.44191 9.27104 4.01179 9.44963 3.5631 9.4503ZM12.872 14.1047C12.5372 14.1047 12.2099 14.0055 11.9315 13.8195C11.6531 13.6334 11.4362 13.3691 11.308 13.0597C11.1799 12.7504 11.1464 12.4101 11.2117 12.0817C11.277 11.7533 11.4382 11.4517 11.675 11.2149C11.9117 10.9782 12.2134 10.817 12.5417 10.7516C12.8701 10.6863 13.2105 10.7199 13.5198 10.848C13.8291 10.9761 14.0935 11.1931 14.2795 11.4715C14.4655 11.7498 14.5648 12.0771 14.5648 12.4119C14.5645 12.8608 14.386 13.2912 14.0686 13.6086C13.7512 13.926 13.3208 14.1044 12.872 14.1047Z"></path>
    </symbol>
    <symbol xmlns="http://www.w3.org/2000/svg" viewBox="0 0 6 9" id="question">
        <path  d="M2.442 5.448C2.442 5.052 2.53 4.72567 2.706 4.469C2.88933 4.205 3.15333 3.919 3.498 3.611C3.762 3.37633 3.95633 3.17467 4.081 3.006C4.213 2.83 4.279 2.632 4.279 2.412C4.279 2.104 4.15433 1.85467 3.905 1.664C3.65567 1.47333 3.322 1.378 2.904 1.378C2.112 1.378 1.51433 1.66033 1.111 2.225L0.044 1.532C0.359333 1.09933 0.766333 0.769333 1.265 0.542C1.76367 0.307333 2.35033 0.19 3.025 0.19C3.84633 0.19 4.499 0.369666 4.983 0.729C5.47433 1.081 5.72 1.56867 5.72 2.192C5.72 2.49267 5.66867 2.75667 5.566 2.984C5.47067 3.21133 5.35333 3.40567 5.214 3.567C5.07467 3.721 4.89133 3.90067 4.664 4.106C4.38533 4.35533 4.17633 4.57533 4.037 4.766C3.905 4.95667 3.839 5.184 3.839 5.448H2.442ZM3.146 8.077C2.88933 8.077 2.67667 7.99633 2.508 7.835C2.34667 7.66633 2.266 7.461 2.266 7.219C2.266 6.977 2.34667 6.77533 2.508 6.614C2.67667 6.45267 2.88933 6.372 3.146 6.372C3.39533 6.372 3.60067 6.45267 3.762 6.614C3.93067 6.77533 4.015 6.977 4.015 7.219C4.015 7.461 3.93067 7.66633 3.762 7.835C3.60067 7.99633 3.39533 8.077 3.146 8.077Z"></path>
    </symbol>
    <symbol version="1.1" id="checked" xmlns="http://www.w3.org/2000/svg" xmlns:xlink="http://www.w3.org/1999/xlink"  xml:space="preserve" viewBox="0 0 288.941 288.941">
    <g>
      <path id="Check" d="M285.377,46.368c-4.74-4.704-12.439-4.704-17.179,0L96.309,217.114L20.734,142.61
		c-4.74-4.704-12.439-4.704-17.179,0s-4.74,12.319,0,17.011l84.2,82.997c4.692,4.644,12.499,4.644,17.191,0l180.43-179.239
		C290.129,58.687,290.129,51.06,285.377,46.368C280.637,41.664,290.129,51.06,285.377,46.368z"></path>
    </g>
  </symbol>
    <symbol xmlns="http://www.w3.org/2000/svg" viewBox="0 0 16 16" id="test-drive">
        <path d="M8 0C5.87897 0.00229405 3.84547 0.845885 2.34568 2.34568C0.845885 3.84547 0.00229405 5.87897 0 8C0.4 18.6 15.6 18.5953 16 8C15.9977 5.87897 15.1541 3.84547 13.6543 2.34568C12.1545 0.845885 10.121 0.00229405 8 0V0ZM8 1.33333C9.33796 1.33478 10.6446 1.73845 11.7502 2.49194C12.8558 3.24542 13.7094 4.31391 14.2 5.55867L9.34933 6.52867C8.42731 6.71267 7.47802 6.71267 6.556 6.52867L1.796 5.57667C2.28411 4.32797 3.13707 3.25526 4.24369 2.49837C5.35032 1.74147 6.65929 1.33549 8 1.33333ZM1.33333 8.07133L4.10333 8.62533C4.48716 8.70211 4.84937 8.86245 5.16426 9.09496C5.47914 9.32747 5.73899 9.62644 5.92533 9.97067L6.342 10.7393C6.55235 11.1284 6.66277 11.5637 6.66333 12.006V14.5333C5.17146 14.2255 3.8297 13.4168 2.86079 12.2414C1.89188 11.066 1.35408 9.59453 1.33667 8.07133H1.33333ZM9.33333 14.5333V12.0087C9.3339 11.5663 9.44432 11.1311 9.65467 10.742L10.0713 9.97333C10.2577 9.62911 10.5175 9.33013 10.8324 9.09762C11.1473 8.86512 11.5095 8.70478 11.8933 8.628L14.6667 8.07133C14.6489 9.59546 14.1102 11.0676 13.14 12.2432C12.1697 13.4187 10.8264 14.2269 9.33333 14.5333Z"></path>
    </symbol>
    <symbol xmlns="http://www.w3.org/2000/svg" viewBox="0 0 15 14" id="trash-can">
        <g clip-path="url(#clip0_2468_12657)">
            <path d="M12.4896 2.33333H10.6813C10.5459 1.67499 10.1876 1.08345 9.66698 0.658419C9.14632 0.233386 8.49504 0.000848473 7.82292 0L6.65625 0C5.98413 0.000848473 5.33285 0.233386 4.81219 0.658419C4.29152 1.08345 3.93331 1.67499 3.79792 2.33333H1.98958C1.83487 2.33333 1.6865 2.39479 1.5771 2.50419C1.46771 2.61358 1.40625 2.76196 1.40625 2.91667C1.40625 3.07138 1.46771 3.21975 1.5771 3.32915C1.6865 3.43854 1.83487 3.5 1.98958 3.5H2.57292V11.0833C2.57384 11.8566 2.88143 12.5979 3.42821 13.1447C3.97499 13.6915 4.71632 13.9991 5.48958 14H8.98958C9.76285 13.9991 10.5042 13.6915 11.051 13.1447C11.5977 12.5979 11.9053 11.8566 11.9063 11.0833V3.5H12.4896C12.6443 3.5 12.7927 3.43854 12.9021 3.32915C13.0115 3.21975 13.0729 3.07138 13.0729 2.91667C13.0729 2.76196 13.0115 2.61358 12.9021 2.50419C12.7927 2.39479 12.6443 2.33333 12.4896 2.33333ZM6.65625 1.16667H7.82292C8.18474 1.16711 8.53757 1.27947 8.83302 1.48834C9.12848 1.69721 9.35208 1.99237 9.47317 2.33333H5.006C5.12709 1.99237 5.35069 1.69721 5.64614 1.48834C5.94159 1.27947 6.29442 1.16711 6.65625 1.16667ZM10.7396 11.0833C10.7396 11.5475 10.5552 11.9926 10.227 12.3208C9.89883 12.649 9.45371 12.8333 8.98958 12.8333H5.48958C5.02545 12.8333 4.58034 12.649 4.25215 12.3208C3.92396 11.9926 3.73958 11.5475 3.73958 11.0833V3.5H10.7396V11.0833Z"></path>
            <path d="M6.07357 10.4997C6.22828 10.4997 6.37665 10.4382 6.48605 10.3288C6.59544 10.2194 6.6569 10.0711 6.6569 9.91634V6.41634C6.6569 6.26163 6.59544 6.11326 6.48605 6.00386C6.37665 5.89447 6.22828 5.83301 6.07357 5.83301C5.91886 5.83301 5.77049 5.89447 5.66109 6.00386C5.55169 6.11326 5.49023 6.26163 5.49023 6.41634V9.91634C5.49023 10.0711 5.55169 10.2194 5.66109 10.3288C5.77049 10.4382 5.91886 10.4997 6.07357 10.4997Z"></path>
            <path d="M8.40755 10.4997C8.56226 10.4997 8.71063 10.4382 8.82003 10.3288C8.92943 10.2194 8.99089 10.0711 8.99089 9.91634V6.41634C8.99089 6.26163 8.92943 6.11326 8.82003 6.00386C8.71063 5.89447 8.56226 5.83301 8.40755 5.83301C8.25284 5.83301 8.10447 5.89447 7.99507 6.00386C7.88568 6.11326 7.82422 6.26163 7.82422 6.41634V9.91634C7.82422 10.0711 7.88568 10.2194 7.99507 10.3288C8.10447 10.4382 8.25284 10.4997 8.40755 10.4997Z"></path>
        </g>
    </symbol>
</svg>